<?xml version="1.0" encoding="UTF-8" standalone="no"?>
<!DOCTYPE svg PUBLIC "-//W3C//DTD SVG 1.1//EN" "http://www.w3.org/Graphics/SVG/1.1/DTD/svg11.dtd">
<svg x="0px" y="0px" width="128px" height="64px" viewBox="0 0 128 64" version="1.1" xmlns="http://www.w3.org/2000/svg" xmlns:xlink="http://www.w3.org/1999/xlink" xml:space="preserve" xmlns:serif="http://www.serif.com/" style="fill-rule:evenodd;clip-rule:evenodd;stroke-linejoin:round;stroke-miterlimit:1.41421;">
<path id="_3" serif:id="3" d="M77.858,16.186l0,8.186l3.07,0l0,-8.186l2.046,0l1.023,-3.07l-3.069,0c0,0 0,-0.511 0,-1.33c0,-0.307 0.204,-0.716 0.716,-0.716c1.023,0 2.967,0 2.353,0l0,-3.07c0,0 -1.637,0 -3.376,0c-1.74,0 -2.763,1.33 -2.763,2.865c0,1.535 0,2.354 0,2.354l-2.047,0l0,3.069l2.047,0l0,-0.102Z" style="fill:#242e30;fill-rule:nonzero;"/><path id="_1" serif:id="1" d="M24.253,11.422c-0.6,0.3 -1.2,0.4 -1.9,0.5c0.7,-0.4 1.2,-1 1.4,-1.8c-0.6,0.4 -1.3,0.6 -2.1,0.8c-0.6,-0.6 -1.5,-1 -2.4,-1c-1.8,0 -3.3,1.5 -3.3,3.3c0,0.3 0,0.5 0.1,0.7c-2.7,-0.1 -5.1,-1.4 -6.8,-3.4c-0.3,0.5 -0.4,1 -0.4,1.7c0,1.1 0.6,2.1 1.5,2.7c-0.5,0 -1,-0.2 -1.5,-0.4c0,1.6 1.1,2.9 2.6,3.2c-0.4,0.3 -1,0.3 -1.5,0c0.4,1.3 1.6,2.3 3.1,2.3c-1.1,0.9 -2.5,1.4 -4.1,1.4c-0.3,0 -0.5,0 -0.8,0c1.5,0.9 3.2,1.5 5,1.5c6,0 9.3,-5 9.3,-9.3c0,-0.1 0,-0.3 0,-0.4c0.8,-0.5 1.4,-1.1 1.8,-1.8Z" style="fill:#242e30;fill-rule:nonzero;"/><path d="M24,43c-0.6,0.3 -1.2,0.4 -1.9,0.5c0.7,-0.4 1.2,-1 1.4,-1.8c-0.6,0.4 -1.3,0.6 -2.1,0.8c-0.6,-0.6 -1.5,-1 -2.4,-1c-1.8,0 -3.3,1.5 -3.3,3.3c0,0.3 0,0.5 0.1,0.7c-2.7,-0.1 -5.1,-1.4 -6.8,-3.4c-0.3,0.5 -0.4,1 -0.4,1.7c0,1.1 0.6,2.1 1.5,2.7c-0.5,0 -1,-0.2 -1.5,-0.4c0,1.6 1.1,2.9 2.6,3.2c-0.4,0.3 -1,0.3 -1.5,0c0.4,1.3 1.6,2.3 3.1,2.3c-1.1,0.9 -2.5,1.4 -4.1,1.4c-0.3,0 -0.5,0 -0.8,0c1.5,0.9 3.2,1.5 5,1.5c6,0 9.3,-5 9.3,-9.3c0,-0.1 0,-0.3 0,-0.4c0.8,-0.5 1.4,-1.1 1.8,-1.8Z" style="fill:#fff;fill-rule:nonzero;"/><path d="M78,48l0,8l3,0l0,-8l2,0l1,-3l-3,0c0,0 0,-0.5 0,-1.3c0,-0.3 0.2,-0.7 0.7,-0.7c1,0 2.9,0 2.3,0l0,-3c0,0 -1.6,0 -3.3,0c-1.7,0 -2.7,1.3 -2.7,2.8c0,1.5 0,2.3 0,2.3l-2,0l0,3l2,-0.1Z" style="fill:#fff;fill-rule:nonzero;"/><path d="M112,56c-4.4,0 -8,-3.6 -8,-8c0,-4.4 3.6,-8 8,-8c4.4,0 8,3.6 8,8c0,4.4 -3.6,8 -8,8Zm6.7,-6.9c-0.2,-0.1 -2.1,-0.6 -4.3,-0.3c0.9,2.5 1.1,3.7 1.3,4.9c1.7,-1.1 2.7,-2.7 3,-4.6Zm-4,5.2c-0.2,-1.2 -0.5,-2.7 -1.5,-5.2c-3.9,1.3 -5.2,4 -5.4,4.3c1.6,1.3 4.2,1.8 6.9,0.9Zm-7.8,-1.7c1.6,-3.1 5.8,-4.6 5.9,-4.6c-0.2,-0.4 -0.4,-0.8 -0.6,-1.2c-3.4,1 -6.7,1 -7,1c-0.1,1.9 0.6,3.6 1.7,4.8Zm-1.6,-6c0.3,0 3.1,0 6.3,-0.8c-1.1,-2 -2.3,-3.7 -2.5,-4c-1.9,0.9 -3.3,2.7 -3.8,4.8Zm5.1,-5.2c0.2,0.3 1.4,1.9 2.5,4c2.4,-0.9 3.5,-2.3 3.6,-2.5c-1.2,-1.1 -3.5,-2 -6.1,-1.5Zm6.9,2.3c-0.1,0.2 -1.3,1.7 -3.8,2.7c0.2,0.3 0.4,0.9 0.6,1.4c2.3,-0.3 4,0 4.8,0.2c0,-1.8 -0.7,-3.2 -1.6,-4.3Z" style="fill:#fff;fill-rule:nonzero;"/><path d="M50.8,49.1c-0.6,0 -1.1,0.7 -1.1,1.6c0,0.9 0.5,1.6 1.1,1.6c0.6,0 1.1,-0.7 1.1,-1.6c0,-0.9 -0.5,-1.6 -1.1,-1.6Zm3.9,-4c0.1,-0.3 0.1,-2.1 -0.6,-3.8c0,0 -1.6,0.2 -4,1.8c-0.5,-0.1 -1.3,-0.2 -2.2,-0.2c-0.9,0 -1.7,0.1 -2.2,0.2c-2.4,-1.6 -4,-1.8 -4,-1.8c-0.7,1.7 -0.7,3.5 -0.6,3.8c-0.6,0.8 -1.1,1.9 -1.1,3.3c0,6.2 5.2,6.3 6.5,6.3l3,0c1.3,0 6.5,-0.1 6.5,-6.3c0,-1.4 -0.5,-2.5 -1.3,-3.3Zm-6.7,8.9c-3.3,0 -5.9,-0.4 -5.9,-3.6c0,-0.8 0.3,-1.5 0.9,-2.1c1.1,-1 2.9,-0.5 4.9,-0.5c2.1,0 3.9,-0.5 4.9,0.5c0.6,0.6 0.9,1.3 0.9,2.1c0.2,3.2 -2.4,3.6 -5.7,3.6Zm-2.8,-4.9c-0.6,0 -1.1,0.7 -1.1,1.6c0,0.9 0.5,1.6 1.1,1.6c0.6,0 1.1,-0.7 1.1,-1.6c0.1,-0.9 -0.4,-1.6 -1.1,-1.6Z" style="fill:#fff;fill-rule:nonzero;"/><g id="_2" serif:id="2"><circle cx="42.863" cy="9.427" r="1.955" style="fill:#242e30;"/><path d="M44.492,12.686l-3.258,0c-0.18,0 -0.326,0.146 -0.326,0.326l0,9.776c0,0.179 0.146,0.325 0.326,0.325l3.258,0c0.18,0 0.326,-0.146 0.326,-0.325l0,-9.776c0,-0.18 -0.146,-0.326 -0.326,-0.326Z" style="fill:#242e30;fill-rule:nonzero;"/><path d="M54.201,12.237c-1.393,-0.477 -3.135,-0.058 -4.18,0.693c-0.036,-0.14 -0.163,-0.244 -0.315,-0.244l-3.259,0c-0.18,0 -0.326,0.146 -0.326,0.326l0,9.776c0,0.179 0.146,0.325 0.326,0.325l3.259,0c0.18,0 0.326,-0.146 0.326,-0.325l0,-7.026c0.526,-0.453 1.205,-0.598 1.76,-0.362c0.538,0.227 0.847,0.782 0.847,1.522l0,5.866c0,0.179 0.146,0.325 0.325,0.325l3.259,0c0.18,0 0.326,-0.146 0.326,-0.325l0,-6.522c-0.037,-2.678 -1.297,-3.669 -2.348,-4.029Z" style="fill:#242e30;fill-rule:nonzero;"/></g><path d="M118.864,10.332l-13.57,0c-0.985,0 -1.786,0.802 -1.786,1.786l0,7.857c0,0.984 0.801,1.785 1.786,1.785l13.57,0c0.984,0 1.785,-0.801 1.785,-1.785l0,-7.857c0,-0.984 -0.801,-1.786 -1.785,-1.786Zm-9.056,6.346l-4.286,3.571c-0.066,0.056 -0.148,0.083 -0.228,0.083c-0.103,0 -0.205,-0.044 -0.275,-0.129c-0.127,-0.151 -0.106,-0.377 0.045,-0.503l4.286,-3.572c0.151,-0.125 0.377,-0.105 0.503,0.046c0.127,0.152 0.106,0.378 -0.045,0.504Zm2.271,0.095c-0.393,0 -0.787,-0.117 -1.129,-0.352l-5.858,-4.008c-0.163,-0.111 -0.204,-0.334 -0.093,-0.496c0.11,-0.163 0.332,-0.205 0.496,-0.093l5.857,4.007c0.441,0.302 1.011,0.302 1.452,0l5.858,-4.007c0.163,-0.111 0.385,-0.07 0.496,0.093c0.112,0.162 0.07,0.385 -0.093,0.496l-5.857,4.008c-0.343,0.235 -0.736,0.352 -1.129,0.352Zm7.059,3.43c-0.071,0.085 -0.172,0.129 -0.274,0.129c-0.081,0 -0.162,-0.027 -0.229,-0.083l-4.285,-3.571c-0.151,-0.127 -0.172,-0.352 -0.046,-0.504c0.127,-0.151 0.352,-0.171 0.504,-0.046l4.285,3.572c0.151,0.126 0.172,0.352 0.045,0.503Z" style="fill:#242e30;fill-rule:nonzero;"/>
</svg>