<?xml version="1.0" encoding="UTF-8" standalone="no"?><!DOCTYPE svg PUBLIC "-//W3C//DTD SVG 1.1//EN" "http://www.w3.org/Graphics/SVG/1.1/DTD/svg11.dtd"><svg width="100%" height="100%" viewBox="0 0 66 43" version="1.1" xmlns="http://www.w3.org/2000/svg" xmlns:xlink="http://www.w3.org/1999/xlink" xml:space="preserve" style="fill-rule:evenodd;clip-rule:evenodd;stroke-linejoin:round;stroke-miterlimit:1.41421;"><g><path id="retinaicons" d="M31.316,34.189c0,0 -0.812,8.683 4.464,8.683c0,0 1.603,0.999 12.689,-7.948l15.493,-11.354c0,0 1.536,-1.401 1.469,-3.205c0,0 0.268,-1.669 -1.936,-2.938l-24.71,-16.027c0,0 -2.137,-1.738 -4.074,-1.204c0,0 -3.545,0.044 -3.545,5.386l0.15,28.607Z" style="fill:#fff;"/><path id="retinaicons1" d="M0.302,33.003c0,0 -0.736,7.872 4.047,7.872c0,0 1.453,0.906 11.503,-7.205l14.046,-10.294c0,0 1.392,-1.27 1.332,-2.905c0,0 0.242,-1.513 -1.756,-2.663l-22.401,-14.53c0,0 -1.937,-1.575 -3.693,-1.091c0,0 -3.214,0.039 -3.214,4.882l0.136,25.934Z" style="fill:#fff;"/></g></svg>