<?xml version="1.0" encoding="UTF-8" standalone="no"?><!DOCTYPE svg PUBLIC "-//W3C//DTD SVG 1.1//EN" "http://www.w3.org/Graphics/SVG/1.1/DTD/svg11.dtd"><svg width="100%" height="100%" viewBox="0 0 35 51" version="1.1" xmlns="http://www.w3.org/2000/svg" xmlns:xlink="http://www.w3.org/1999/xlink" xml:space="preserve" style="fill-rule:evenodd;clip-rule:evenodd;stroke-linejoin:round;stroke-miterlimit:1.41421;"><path d="M12,6c0,-3.311 -2.689,-6 -6,-6c-3.311,0 -6,2.689 -6,6l0,39c0,3.311 2.689,6 6,6c3.311,0 6,-2.689 6,-6l0,-39Z" style="fill:#fff;"/><path d="M35,6c0,-3.311 -2.689,-6 -6,-6c-3.311,0 -6,2.689 -6,6l0,39c0,3.311 2.689,6 6,6c3.311,0 6,-2.689 6,-6l0,-39Z" style="fill:#fff;"/></svg>