<?xml version="1.0" encoding="UTF-8" standalone="no"?><!DOCTYPE svg PUBLIC "-//W3C//DTD SVG 1.1//EN" "http://www.w3.org/Graphics/SVG/1.1/DTD/svg11.dtd"><svg width="100%" height="100%" viewBox="0 0 66 43" version="1.1" xmlns="http://www.w3.org/2000/svg" xmlns:xlink="http://www.w3.org/1999/xlink" xml:space="preserve" style="fill-rule:evenodd;clip-rule:evenodd;stroke-linejoin:round;stroke-miterlimit:1.41421;"><g><path id="retinaicons" d="M34.291,34.189c0,0 0.812,8.683 -4.463,8.683c0,0 -1.603,0.999 -12.689,-7.948l-15.494,-11.354c0,0 -1.536,-1.401 -1.469,-3.205c0,0 -0.267,-1.669 1.937,-2.938l24.709,-16.027c0,0 2.137,-1.738 4.074,-1.204c0,0 3.546,0.044 3.546,5.386l-0.151,28.607Z" style="fill:#fff;"/><path id="retinaicons1" d="M65.305,33.003c0,0 0.737,7.872 -4.046,7.872c0,0 -1.453,0.906 -11.503,-7.205l-14.046,-10.294c0,0 -1.393,-1.27 -1.332,-2.905c0,0 -0.243,-1.513 1.755,-2.663l22.401,-14.53c0,0 1.938,-1.575 3.693,-1.091c0,0 3.215,0.039 3.215,4.882l-0.137,25.934Z" style="fill:#fff;"/></g></svg>