<?xml version="1.0" encoding="utf-8"?>
<!-- Generator: Adobe Illustrator 12.0.0, SVG Export Plug-In  -->
<!DOCTYPE svg PUBLIC "-//W3C//DTD SVG 1.1//EN" "http://www.w3.org/Graphics/SVG/1.1/DTD/svg11.dtd" [
	<!ENTITY ns_flows "http://ns.adobe.com/Flows/1.0/">
	<!ENTITY ns_svg "http://www.w3.org/2000/svg">
	<!ENTITY ns_xlink "http://www.w3.org/1999/xlink">
]>
<svg  version="1.1" xmlns="&ns_svg;" xmlns:xlink="&ns_xlink;" xmlns:a="http://ns.adobe.com/AdobeSVGViewerExtensions/3.0/"
	 width="456" height="456" viewBox="16 22 456 456" enable-background="new 16 22 456 456" xml:space="preserve">
<defs>
</defs>
<rect x="8" y="15.667" display="none" fill="#43445B" stroke="#000000" stroke-width="0.8146" width="472.334" height="467.667"/>
<rect fill="none" width="500" height="500"/>
<path fill="#FFFFFF" d="M243.681,32.201h2.129v-8.778c0-0.699-0.485-1.269-1.076-1.269c-0.59,0-1.074,0.57-1.074,1.269v8.781
	C243.667,32.203,243.675,32.201,243.681,32.201"/>
<path fill="#FFFFFF" d="M248.992,32.247l2.13,0.054l0.216-8.777c0.017-0.696-0.451-1.281-1.045-1.294
	c-0.59-0.015-1.087,0.546-1.104,1.242l-0.217,8.778C248.979,32.249,248.985,32.247,248.992,32.247"/>
<path fill="#FFFFFF" d="M254.304,32.425l2.126,0.105l0.429-8.77c0.036-0.696-0.42-1.292-1.011-1.32
	c-0.592-0.029-1.103,0.52-1.136,1.216l-0.429,8.77C254.291,32.427,254.298,32.425,254.304,32.425"/>
<path fill="#FFFFFF" d="M259.608,32.884l2.124,0.162l0.643-9.032c0.054-0.717-0.386-1.341-0.979-1.385
	c-0.588-0.044-1.11,0.506-1.163,1.224l-0.645,9.033C259.595,32.885,259.602,32.883,259.608,32.884"/>
<path fill="#FFFFFF" d="M264.905,33.316l2.12,0.214l0.857-9.004c0.065-0.718-0.36-1.35-0.947-1.412
	c-0.592-0.058-1.127,0.478-1.193,1.195l-0.858,9.008C264.891,33.317,264.898,33.315,264.905,33.316"/>
<path fill="#FFFFFF" d="M269.928,33.618l1.96,0.28l0.988-9.409c0.078-0.748-0.302-1.422-0.845-1.5
	c-0.541-0.079-1.051,0.47-1.129,1.217l-0.993,9.412C269.916,33.619,269.924,33.617,269.928,33.618"/>
<path fill="#FFFFFF" d="M275.457,34.426l2.107,0.311l1.395-9.443c0.11-0.749-0.278-1.434-0.862-1.521
	c-0.583-0.086-1.157,0.457-1.267,1.208l-1.394,9.445C275.443,34.427,275.45,34.425,275.457,34.426"/>
<path fill="#FFFFFF" d="M280.709,35.248l2.095,0.361l1.707-9.87c0.137-0.783-0.229-1.508-0.815-1.607
	c-0.58-0.102-1.168,0.458-1.303,1.242l-1.704,9.874C280.695,35.248,280.702,35.247,280.709,35.248"/>
<path fill="#FFFFFF" d="M285.933,36.197l2.091,0.415l1.957-9.866c0.151-0.785-0.195-1.519-0.773-1.636
	c-0.58-0.114-1.184,0.433-1.338,1.218l-1.955,9.868C285.922,36.197,285.926,36.196,285.933,36.197"/>
<path fill="#FFFFFF" d="M291.137,37.276l2.082,0.463l2.236-10.01c0.174-0.795-0.147-1.552-0.729-1.682
	c-0.575-0.127-1.19,0.417-1.372,1.212l-2.236,10.014C291.124,37.276,291.13,37.274,291.137,37.276"/>
<path fill="#FFFFFF" d="M296.315,38.48l2.063,0.516l2.475-9.921c0.196-0.787-0.109-1.55-0.683-1.693
	c-0.577-0.144-1.205,0.384-1.405,1.174l-2.47,9.922C296.302,38.479,296.308,38.479,296.315,38.48"/>
<path fill="#FFFFFF" d="M301.456,39.772l2.057,0.529l2.908-9.863c0.228-0.782-0.052-1.544-0.619-1.69
	c-0.569-0.146-1.229,0.374-1.457,1.158l-2.91,9.862C301.442,39.771,301.449,39.77,301.456,39.772"/>
<path fill="#FFFFFF" d="M306.568,41.268l2.039,0.616l3.052-10.115c0.245-0.803-0.023-1.601-0.587-1.773
	c-0.563-0.17-1.229,0.348-1.468,1.15l-3.057,10.119C306.555,41.267,306.562,41.266,306.568,41.268"/>
<path fill="#FFFFFF" d="M311.639,42.847l2.025,0.666l3.395-10.319c0.268-0.819,0.031-1.642-0.533-1.826
	c-0.561-0.184-1.238,0.334-1.509,1.157l-3.396,10.32C311.625,42.846,311.632,42.845,311.639,42.847"/>
<path fill="#FFFFFF" d="M316.677,44.553l2.003,0.713l3.736-10.48c0.294-0.833,0.083-1.677-0.479-1.875
	c-0.557-0.197-1.251,0.322-1.55,1.155l-3.732,10.483C316.663,44.551,316.67,44.551,316.677,44.553"/>
<path fill="#FFFFFF" d="M321.665,46.379l1.985,0.762l4.281-11.147c0.342-0.886,0.165-1.783-0.386-1.995
	c-0.551-0.212-1.282,0.339-1.622,1.226l-4.279,11.15C321.651,46.376,321.658,46.375,321.665,46.379"/>
<path fill="#FFFFFF" d="M326.609,48.327l1.966,0.81l4.68-11.349c0.373-0.901,0.228-1.823-0.319-2.049
	c-0.544-0.224-1.299,0.331-1.666,1.231l-4.682,11.352C326.595,48.325,326.603,48.324,326.609,48.327"/>
<path fill="#FFFFFF" d="M331.506,50.394l1.943,0.859l5.233-11.861c0.416-0.945,0.316-1.91-0.225-2.148
	c-0.544-0.239-1.325,0.337-1.738,1.28l-5.236,11.865C331.49,50.392,331.499,50.391,331.506,50.394"/>
<path fill="#FFFFFF" d="M336.346,52.581l1.928,0.907l5.747-12.212c0.456-0.969,0.392-1.97-0.144-2.222
	c-0.534-0.251-1.345,0.336-1.802,1.307l-5.748,12.215C336.333,52.579,336.341,52.578,336.346,52.581"/>
<path fill="#FFFFFF" d="M341.136,54.885l1.904,0.955l6.346-12.676c0.503-1.007,0.483-2.048-0.046-2.313
	c-0.527-0.264-1.372,0.344-1.875,1.349l-6.348,12.68C341.123,54.882,341.13,54.882,341.136,54.885"/>
<path fill="#FFFFFF" d="M345.864,57.306l1.884,1l6.831-12.851c0.543-1.021,0.558-2.084,0.037-2.362
	c-0.521-0.277-1.394,0.333-1.934,1.351l-6.84,12.855C345.849,57.303,345.858,57.303,345.864,57.306"/>
<path fill="#FFFFFF" d="M350.535,59.842l1.854,1.043l7.529-13.358c0.597-1.063,0.663-2.168,0.148-2.458
	c-0.515-0.288-1.426,0.342-2.021,1.402l-7.528,13.365C350.523,59.839,350.529,59.838,350.535,59.842"/>
<path fill="#FFFFFF" d="M355.14,62.491l1.829,1.09l8.186-13.726c0.649-1.091,0.765-2.229,0.257-2.534
	c-0.507-0.301-1.455,0.343-2.103,1.434l-8.187,13.729C355.126,62.488,355.135,62.486,355.14,62.491"/>
<path fill="#FFFFFF" d="M359.68,65.253l1.807,1.134l10.938-15.565c0.373-0.592,0.27-1.332-0.23-1.646
	c-0.504-0.317-1.214-0.093-1.587,0.499l-10.947,15.568C359.666,65.249,359.673,65.25,359.68,65.253"/>
<path fill="#FFFFFF" d="M364.154,68.125l1.773,1.177l12.054-16.491c0.386-0.582,0.295-1.324-0.197-1.652
	c-0.491-0.327-1.213-0.12-1.594,0.463L364.13,68.116C364.137,68.119,364.148,68.122,364.154,68.125"/>
<path fill="#FFFFFF" d="M368.924,71.6l1.744,1.223l12.841-17.153c0.401-0.573,0.332-1.317-0.153-1.656
	c-0.483-0.338-1.208-0.148-1.608,0.421l-12.843,17.155C368.91,71.594,368.918,71.596,368.924,71.6"/>
<path fill="#FFFFFF" d="M373.501,74.563l1.71,1.264l14.956-18.915c0.414-0.562,0.363-1.309-0.112-1.659
	c-0.476-0.352-1.206-0.178-1.62,0.383L373.48,74.553C373.486,74.557,373.495,74.559,373.501,74.563"/>
<path fill="#FFFFFF" d="M377.373,77.752l1.685,1.305l17.148-20.777c0.428-0.552,0.396-1.298-0.077-1.663
	c-0.467-0.364-1.195-0.208-1.622,0.344l-17.15,20.78C377.362,77.747,377.367,77.749,377.373,77.752"/>
<path fill="#FFFFFF" d="M381.67,81.172l1.652,1.345l20.036-23.121c0.441-0.542,0.429-1.289-0.03-1.663
	c-0.457-0.374-1.196-0.237-1.636,0.303l-20.041,23.124C381.658,81.165,381.664,81.167,381.67,81.172"/>
<path fill="#FFFFFF" d="M385.756,84.688l1.619,1.388l24.876-27.672c0.453-0.529,0.458-1.277,0.009-1.662
	c-0.45-0.385-1.189-0.267-1.642,0.263L385.74,84.678C385.744,84.682,385.751,84.684,385.756,84.688"/>
<path fill="#FFFFFF" d="M389.761,88.182l1.583,1.427l32.648-35.795c0.466-0.518,0.489-1.265,0.049-1.661
	c-0.44-0.396-1.178-0.295-1.644,0.223l-32.653,35.796C389.749,88.176,389.756,88.178,389.761,88.182"/>
<path fill="#FFFFFF" d="M393.555,91.525l1.547,1.463l55.024-56.294c0.479-0.506,0.518-1.253,0.091-1.658
	c-0.432-0.407-1.172-0.326-1.655,0.183l-55.022,56.294C393.544,91.517,393.55,91.52,393.555,91.525"/>
<path fill="#FFFFFF" d="M397.382,95.333l1.515,1.5L457.9,38.553c0.494-0.495,0.552-1.242,0.131-1.659
	c-0.418-0.416-1.167-0.352-1.657,0.143l-59.009,58.284C397.371,95.325,397.377,95.328,397.382,95.333"/>
<path fill="#FFFFFF" d="M401.123,99.11l1.472,1.538l51.294-48.081c0.508-0.483,0.583-1.229,0.173-1.656
	c-0.409-0.427-1.156-0.379-1.659,0.103l-51.295,48.083C401.112,99.102,401.117,99.105,401.123,99.11"/>
<path fill="#FFFFFF" d="M405.138,102.979l1.435,1.573l33.88-30.654c0.515-0.469,0.613-1.214,0.214-1.65
	c-0.399-0.436-1.147-0.408-1.661,0.063l-33.882,30.656C405.128,102.971,405.133,102.974,405.138,102.979"/>
<path fill="#FFFFFF" d="M408.687,107.183l1.396,1.605l27.093-23.374c0.526-0.458,0.639-1.198,0.249-1.644
	c-0.383-0.447-1.133-0.438-1.658,0.02l-27.096,23.378C408.676,107.174,408.682,107.178,408.687,107.183"/>
<path fill="#FFFFFF" d="M412.262,111.346l1.357,1.642l23.383-19.49c0.542-0.444,0.672-1.18,0.294-1.635
	c-0.378-0.455-1.123-0.464-1.665-0.02l-23.384,19.49C412.251,111.336,412.257,111.339,412.262,111.346"/>
<path fill="#FFFFFF" d="M415.487,115.471l1.317,1.674l21.412-16.718c0.547-0.432,0.699-1.165,0.332-1.629
	c-0.366-0.464-1.116-0.491-1.663-0.06l-21.413,16.718C415.478,115.462,415.483,115.465,415.487,115.471"/>
<path fill="#FFFFFF" d="M419.108,119.428l1.275,1.704l19.313-14.438c0.557-0.416,0.723-1.148,0.367-1.62
	c-0.35-0.474-1.1-0.519-1.656-0.1l-19.315,14.44C419.098,119.418,419.104,119.422,419.108,119.428"/>
<path fill="#FFFFFF" d="M422.186,123.585l1.245,1.735l17.996-12.403c0.579-0.403,0.765-1.129,0.415-1.611
	c-0.34-0.481-1.096-0.544-1.667-0.14l-18.004,12.403C422.175,123.575,422.181,123.579,422.186,123.585"/>
<path fill="#FFFFFF" d="M425.208,128.069l1.213,1.766l17.006-11.237c0.59-0.39,0.797-1.11,0.46-1.6
	c-0.339-0.489-1.096-0.571-1.684-0.181l-17.009,11.237C425.198,128.059,425.204,128.063,425.208,128.069"/>
<path fill="#FFFFFF" d="M428.228,132.871l1.145,1.794l15.71-10.312c0.587-0.375,0.805-1.091,0.488-1.588
	c-0.319-0.497-1.061-0.599-1.648-0.223l-15.706,10.313C428.22,132.861,428.224,132.866,428.228,132.871"/>
<path fill="#FFFFFF" d="M430.805,137.87l1.101,1.82l15.199-9.756c0.602-0.362,0.834-1.072,0.526-1.577
	c-0.303-0.506-1.043-0.625-1.638-0.263l-15.206,9.759C430.795,137.86,430.801,137.864,430.805,137.87"/>
<path fill="#FFFFFF" d="M433.518,141.82l1.054,1.847l14.813-8.457c0.609-0.348,0.86-1.051,0.569-1.563
	c-0.296-0.514-1.032-0.649-1.635-0.305l-14.813,8.459C433.509,141.808,433.514,141.813,433.518,141.82"/>
<path fill="#FFFFFF" d="M436.025,146.33l1.062,1.872l14.054-7.152c0.646-0.33,0.927-1.029,0.637-1.549
	c-0.296-0.519-1.063-0.673-1.705-0.341l-14.058,7.154C436.018,146.319,436.021,146.324,436.025,146.33"/>
<path fill="#FFFFFF" d="M438.973,151.273l0.967,1.898l13.402-6.466c0.625-0.319,0.911-1.009,0.646-1.535
	c-0.27-0.529-1-0.699-1.62-0.383l-13.406,6.468C438.965,151.262,438.97,151.267,438.973,151.273"/>
<path fill="#FFFFFF" d="M440.726,156.36l0.917,1.921l13.377-6.358c0.625-0.3,0.934-0.984,0.682-1.518
	c-0.26-0.532-0.983-0.721-1.611-0.422"/>
<path fill="#FFFFFF" d="M444.264,163.049l12.557-5.602c0.635-0.285,0.957-0.959,0.717-1.501c-0.244-0.537-0.961-0.745-1.6-0.46
	l-12.558,5.603"/>
<path fill="#FFFFFF" d="M445.449,166.233l0.827,1.963l12.718-5.295c0.64-0.269,0.98-0.936,0.753-1.48
	c-0.229-0.546-0.942-0.771-1.588-0.499l-12.72,5.292C445.441,166.221,445.446,166.227,445.449,166.233"/>
<path fill="#FFFFFF" d="M447.292,170.99l0.771,1.983l12.357-4.811c0.65-0.255,1.001-0.914,0.79-1.463
	c-0.219-0.552-0.924-0.794-1.576-0.54l-12.354,4.813C447.284,170.979,447.289,170.983,447.292,170.99"/>
<path fill="#FFFFFF" d="M448.908,175.975l0.729,2l11.964-4.258c0.652-0.239,1.023-0.888,0.823-1.442
	c-0.203-0.557-0.901-0.817-1.562-0.578l-11.964,4.258C448.901,175.962,448.906,175.968,448.908,175.975"/>
<path fill="#FFFFFF" d="M451.126,180.884l0.682,2.021l11.466-3.836c0.657-0.223,1.045-0.863,0.852-1.422
	c-0.186-0.563-0.877-0.837-1.541-0.614l-11.465,3.833C451.121,180.874,451.125,180.878,451.126,180.884"/>
<path fill="#FFFFFF" d="M452.648,186.321l0.629,2.033l11.163-3.392c0.669-0.207,1.071-0.838,0.892-1.404
	c-0.172-0.563-0.861-0.856-1.525-0.65l-11.169,3.394C452.641,186.309,452.646,186.314,452.648,186.321"/>
<path fill="#FFFFFF" d="M454.143,191.393l0.578,2.049l11.506-3.169c0.673-0.19,1.09-0.811,0.925-1.381
	c-0.157-0.567-0.84-0.879-1.511-0.689l-11.506,3.172C454.137,191.38,454.141,191.385,454.143,191.393"/>
<path fill="#FFFFFF" d="M455.684,196.381l0.531,2.061l11.172-2.823c0.673-0.174,1.107-0.785,0.961-1.356
	c-0.146-0.574-0.822-0.9-1.495-0.729l-11.181,2.828C455.675,196.368,455.681,196.374,455.684,196.381"/>
<path fill="#FFFFFF" d="M456.728,201.869l0.479,2.073l11.086-2.572c0.677-0.158,1.124-0.758,0.993-1.333
	c-0.133-0.578-0.8-0.921-1.478-0.763l-11.088,2.575C456.723,201.855,456.726,201.861,456.728,201.869"/>
<path fill="#FFFFFF" d="M457.936,206.902l0.428,2.085l10.329-2.085c0.681-0.14,1.141-0.729,1.024-1.308
	c-0.117-0.58-0.777-0.94-1.457-0.798l-10.331,2.085C457.93,206.888,457.934,206.894,457.936,206.902"/>
<path fill="#FFFFFF" d="M458.832,211.96l0.41,2.098l9.343-1.555c0.738-0.124,1.252-0.7,1.141-1.282
	c-0.111-0.584-0.813-0.957-1.555-0.835l-9.345,1.555C458.828,211.948,458.831,211.953,458.832,211.96"/>
<path fill="#FFFFFF" d="M459.612,217.322l0.353,2.106l9.369-1.345c0.746-0.106,1.276-0.671,1.18-1.256
	c-0.096-0.583-0.788-0.975-1.534-0.869l-9.373,1.344C459.607,217.309,459.611,217.315,459.612,217.322"/>
<path fill="#FFFFFF" d="M460.263,222.787l0.291,2.111l9.403-1.131c0.743-0.088,1.292-0.642,1.205-1.229
	c-0.082-0.586-0.756-0.994-1.506-0.902l-9.398,1.131C460.259,222.776,460.262,222.781,460.263,222.787"/>
<path fill="#FFFFFF" d="M460.907,227.722l0.224,2.118l8.729-0.917c0.696-0.075,1.211-0.614,1.151-1.203
	c-0.062-0.585-0.685-1.008-1.375-0.937l-8.733,0.917C460.903,227.708,460.906,227.714,460.907,227.722"/>
<path fill="#FFFFFF" d="M461.261,233.103l0.167,2.124l8.755-0.704c0.697-0.056,1.228-0.585,1.179-1.173
	c-0.047-0.59-0.656-1.027-1.348-0.971l-8.757,0.703C461.257,233.09,461.26,233.096,461.261,233.103"/>
<path fill="#FFFFFF" d="M461.521,238.403l0.115,2.127l8.769-0.489c0.692-0.042,1.233-0.556,1.201-1.145
	c-0.032-0.591-0.627-1.042-1.325-1.004l-8.764,0.49C461.518,238.39,461.521,238.397,461.521,238.403"/>
<path fill="#FFFFFF" d="M461.643,243.341l0.066,2.128l8.777-0.276c0.694-0.021,1.252-0.521,1.235-1.113
	c-0.02-0.593-0.608-1.057-1.302-1.037l-8.78,0.276C461.64,243.325,461.643,243.334,461.643,243.341"/>
<path fill="#FFFFFF" d="M461.681,248.074l0.015,2.129l8.781-0.062c0.693-0.006,1.264-0.492,1.26-1.083
	c-0.004-0.59-0.582-1.074-1.276-1.068l-8.781,0.064C461.679,248.061,461.681,248.067,461.681,248.074"/>
<path fill="#FFFFFF" d="M461.875,252.727l-0.037,2.131l8.78,0.15c0.699,0.013,1.276-0.46,1.287-1.05
	c0.011-0.596-0.552-1.088-1.251-1.101l-8.781-0.151C461.873,252.713,461.875,252.72,461.875,252.727"/>
<path fill="#FFFFFF" d="M461.736,258.039l-0.088,2.127l8.774,0.364c0.693,0.034,1.288-0.43,1.311-1.02
	c0.024-0.589-0.528-1.096-1.222-1.125l-8.777-0.368C461.734,258.024,461.736,258.032,461.736,258.039"/>
<path fill="#FFFFFF" d="M461.471,263.347l-0.146,2.124l8.763,0.582c0.694,0.045,1.297-0.399,1.337-0.989
	c0.037-0.593-0.497-1.112-1.196-1.159l-8.762-0.579C461.467,263.332,461.471,263.339,461.471,263.347"/>
<path fill="#FFFFFF" d="M461.071,268.646l-0.195,2.116l8.746,0.797c0.691,0.063,1.306-0.369,1.358-0.954
	c0.054-0.588-0.47-1.12-1.168-1.188l-8.742-0.79C461.07,268.633,461.072,268.639,461.071,268.646"/>
<path fill="#FFFFFF" d="M460.539,273.933l-0.242,2.113l8.725,1.012c0.69,0.079,1.309-0.336,1.382-0.922
	c0.067-0.591-0.443-1.136-1.138-1.216l-8.727-1.008C460.538,273.919,460.54,273.926,460.539,273.933"/>
<path fill="#FFFFFF" d="M459.886,279.2l-0.299,2.111l8.696,1.224c0.688,0.096,1.323-0.304,1.404-0.889
	c0.082-0.585-0.415-1.146-1.104-1.242l-8.698-1.224C459.885,279.187,459.887,279.193,459.886,279.2"/>
<path fill="#FFFFFF" d="M459.099,284.456l-0.35,2.103l8.665,1.434c0.686,0.119,1.329-0.267,1.423-0.853
	c0.096-0.582-0.387-1.152-1.072-1.271l-8.665-1.432C459.099,284.444,459.1,284.451,459.099,284.456"/>
<path fill="#FFFFFF" d="M458.185,289.693l-0.399,2.093l8.627,1.643c0.682,0.132,1.336-0.236,1.444-0.814
	c0.11-0.584-0.358-1.164-1.042-1.294l-8.629-1.648C458.185,289.679,458.186,289.687,458.185,289.693"/>
<path fill="#FFFFFF" d="M457.144,294.906l-0.448,2.076l8.579,1.862c0.683,0.144,1.343-0.21,1.464-0.786
	c0.129-0.577-0.326-1.173-1.011-1.318l-8.582-1.855C457.145,294.891,457.146,294.897,457.144,294.906"/>
<path fill="#FFFFFF" d="M455.974,300.086l-0.5,2.071l8.532,2.065c0.681,0.161,1.347-0.173,1.489-0.749
	c0.136-0.573-0.304-1.179-0.982-1.34l-8.537-2.069C455.975,300.071,455.976,300.079,455.974,300.086"/>
<path fill="#FFFFFF" d="M454.679,305.241l-0.551,2.06l8.481,2.27c0.676,0.181,1.349-0.141,1.501-0.711
	c0.156-0.57-0.271-1.185-0.946-1.365l-8.481-2.273C454.681,305.228,454.681,305.234,454.679,305.241"/>
<path fill="#FFFFFF" d="M453.259,310.364l-0.599,2.04l8.422,2.479c0.667,0.197,1.352-0.104,1.518-0.673
	c0.166-0.567-0.244-1.19-0.912-1.389l-8.426-2.477C453.261,310.352,453.261,310.358,453.259,310.364"/>
<path fill="#FFFFFF" d="M451.718,315.446l-0.656,2.028l8.361,2.685c0.66,0.21,1.355-0.078,1.533-0.638
	c0.184-0.563-0.212-1.196-0.879-1.41l-8.355-2.686C451.72,315.433,451.72,315.439,451.718,315.446"/>
<path fill="#FFFFFF" d="M450.045,320.489l-0.702,2.013l8.293,2.885c0.659,0.233,1.357-0.037,1.55-0.597
	c0.197-0.557-0.182-1.203-0.845-1.431l-8.292-2.893C450.047,320.475,450.047,320.482,450.045,320.489"/>
<path fill="#FFFFFF" d="M448.255,325.495l-0.75,1.991l8.22,3.089c0.65,0.249,1.357-0.006,1.563-0.559
	c0.21-0.553-0.156-1.208-0.812-1.452l-8.217-3.089C448.258,325.481,448.258,325.488,448.255,325.495"/>
<path fill="#FFFFFF" d="M446.337,330.453l-0.792,1.972l8.139,3.292c0.642,0.257,1.355,0.025,1.58-0.527
	c0.22-0.546-0.131-1.206-0.774-1.469l-8.147-3.288C446.34,330.438,446.34,330.445,446.337,330.453"/>
<path fill="#FFFFFF" d="M444.307,335.36l-0.846,1.953l8.059,3.487c0.641,0.278,1.354,0.059,1.591-0.482
	c0.231-0.543-0.096-1.214-0.739-1.488l-8.058-3.487C444.31,335.349,444.31,335.355,444.307,335.36"/>
<path fill="#FFFFFF" d="M442.153,340.22l-0.894,1.933l7.971,3.682c0.631,0.293,1.354,0.095,1.603-0.447
	c0.247-0.534-0.069-1.211-0.701-1.505l-7.973-3.683C442.157,340.206,442.156,340.214,442.153,340.22"/>
<path fill="#FFFFFF" d="M439.883,345.024l-0.939,1.909l7.879,3.877c0.623,0.306,1.351,0.126,1.608-0.405
	c0.264-0.53-0.036-1.219-0.66-1.527l-7.881-3.873C439.887,345.012,439.886,345.019,439.883,345.024"/>
<path fill="#FFFFFF" d="M437.497,349.768l-0.989,1.893l7.781,4.065c0.617,0.32,1.347,0.156,1.623-0.366
	c0.271-0.522-0.007-1.218-0.627-1.543l-7.78-4.066C437.501,349.756,437.501,349.762,437.497,349.768"/>
<path fill="#FFFFFF" d="M434.993,354.459l-1.032,1.86l7.676,4.259c0.61,0.334,1.345,0.188,1.634-0.327
	c0.282-0.516,0.021-1.218-0.591-1.558l-7.679-4.254C434.998,354.445,434.996,354.452,434.993,354.459"/>
<path fill="#FFFFFF" d="M432.374,359.079l-1.074,1.838l7.571,4.441c0.6,0.354,1.339,0.227,1.635-0.282
	c0.301-0.51,0.05-1.218-0.549-1.571l-7.575-4.444C432.379,359.066,432.378,359.073,432.374,359.079"/>
<path fill="#FFFFFF" d="M429.646,363.639l-1.123,1.815l7.462,4.624c0.59,0.367,1.332,0.26,1.645-0.248
	c0.313-0.502,0.082-1.212-0.509-1.58l-7.465-4.63C429.65,363.627,429.649,363.633,429.646,363.639"/>
<path fill="#FFFFFF" d="M426.803,368.134l-1.164,1.781l7.346,4.805c0.586,0.383,1.326,0.29,1.649-0.203
	c0.325-0.494,0.11-1.214-0.472-1.597l-7.346-4.804C426.813,368.122,426.811,368.129,426.803,368.134"/>
<path fill="#FFFFFF" d="M423.857,372.556l-1.211,1.747l7.226,4.989c0.577,0.396,1.319,0.319,1.655-0.167
	c0.337-0.487,0.14-1.206-0.433-1.604l-7.228-4.986C423.863,372.542,423.861,372.549,423.857,372.556"/>
<path fill="#FFFFFF" d="M420.801,376.898l-1.253,1.723l7.103,5.162c0.565,0.41,1.312,0.356,1.659-0.123
	c0.35-0.481,0.17-1.206-0.395-1.615l-7.104-5.165C420.808,376.884,420.806,376.892,420.801,376.898"/>
<path fill="#FFFFFF" d="M417.64,381.17l-1.294,1.694l6.979,5.331c0.551,0.426,1.3,0.387,1.655-0.081
	c0.36-0.472,0.203-1.203-0.352-1.626l-6.977-5.333C417.646,381.158,417.644,381.164,417.64,381.17"/>
<path fill="#FFFFFF" d="M414.378,385.361l-1.334,1.662l6.84,5.504c0.542,0.431,1.291,0.414,1.664-0.049
	c0.37-0.459,0.226-1.19-0.317-1.628l-6.842-5.505C414.385,385.351,414.382,385.355,414.378,385.361"/>
<path fill="#FFFFFF" d="M411.012,389.477l-1.377,1.625l6.706,5.667c0.532,0.451,1.282,0.45,1.664-0.002s0.254-1.191-0.276-1.642
	l-6.706-5.665C411.018,389.465,411.016,389.472,411.012,389.477"/>
<path fill="#FFFFFF" d="M407.544,393.505l-1.414,1.591l6.567,5.828c0.521,0.462,1.27,0.479,1.658,0.037
	c0.393-0.438,0.288-1.18-0.232-1.643l-6.568-5.83C407.55,393.493,407.548,393.5,407.544,393.505"/>
<path fill="#FFFFFF" d="M403.981,397.448l-1.451,1.555l6.419,5.991c0.509,0.474,1.259,0.51,1.662,0.077
	c0.404-0.433,0.316-1.178-0.193-1.652l-6.425-5.987C403.989,397.437,403.986,397.443,403.981,397.448"/>
<path fill="#FFFFFF" d="M400.325,401.3l-1.49,1.524l6.273,6.142c0.498,0.49,1.239,0.542,1.654,0.12
	c0.414-0.426,0.346-1.17-0.152-1.656l-6.274-6.147C400.331,401.287,400.328,401.294,400.325,401.3"/>
<path fill="#FFFFFF" d="M396.569,405.064l-1.523,1.485l6.121,6.293c0.485,0.499,1.232,0.573,1.658,0.162
	c0.421-0.413,0.368-1.159-0.117-1.658l-6.124-6.296C396.578,405.056,396.576,405.06,396.569,405.064"/>
<path fill="#FFFFFF" d="M392.731,408.735l-1.564,1.445l5.966,6.445c0.476,0.51,1.214,0.598,1.648,0.198
	c0.436-0.403,0.402-1.147-0.071-1.665l-5.966-6.439C392.738,408.725,392.735,408.73,392.731,408.735"/>
<path fill="#FFFFFF" d="M388.801,412.312l-1.599,1.407l5.806,6.586c0.463,0.522,1.203,0.63,1.645,0.243
	c0.444-0.392,0.43-1.143-0.03-1.665l-5.808-6.587C388.81,412.301,388.805,412.307,388.801,412.312"/>
<path fill="#FFFFFF" d="M384.785,415.791l-1.635,1.367l5.646,6.725c0.447,0.534,1.187,0.665,1.639,0.282
	c0.452-0.38,0.457-1.128,0.008-1.662l-5.645-6.728C384.794,415.779,384.79,415.786,384.785,415.791"/>
<path fill="#FFFFFF" d="M380.684,419.166l-1.664,1.33l5.476,6.864c0.435,0.543,1.171,0.687,1.632,0.32
	c0.463-0.368,0.485-1.119,0.049-1.661l-5.476-6.866C380.694,419.156,380.69,419.162,380.684,419.166"/>
<path fill="#FFFFFF" d="M376.5,422.449l-1.694,1.287l5.307,6.99c0.421,0.56,1.152,0.72,1.623,0.36
	c0.472-0.356,0.51-1.103,0.088-1.657l-5.308-6.995C376.509,422.439,376.506,422.445,376.5,422.449"/>
<path fill="#FFFFFF" d="M372.242,425.625l-1.727,1.245l5.131,7.12c0.408,0.566,1.138,0.747,1.616,0.399
	c0.479-0.345,0.537-1.094,0.128-1.657l-5.134-7.123C372.252,425.614,372.248,425.62,372.242,425.625"/>
<path fill="#FFFFFF" d="M367.905,428.694l-1.76,1.204l4.961,7.243c0.396,0.574,1.118,0.774,1.605,0.438
	c0.487-0.333,0.563-1.08,0.168-1.654l-4.959-7.246C367.915,428.685,367.911,428.69,367.905,428.694"/>
<path fill="#FFFFFF" d="M363.493,431.659l-1.785,1.158l4.783,7.363c0.378,0.583,1.092,0.799,1.588,0.478
	c0.495-0.322,0.594-1.065,0.215-1.649l-4.783-7.362C363.503,431.65,363.499,431.656,363.493,431.659"/>
<path fill="#FFFFFF" d="M359.013,434.513l-1.814,1.118l4.6,7.473c0.364,0.598,1.078,0.827,1.581,0.521
	c0.503-0.311,0.616-1.051,0.247-1.645l-4.6-7.48C359.022,434.503,359.019,434.509,359.013,434.513"/>
<path fill="#FFFFFF" d="M354.462,437.257l-1.839,1.073l4.416,7.587c0.348,0.603,1.055,0.854,1.564,0.553
	c0.512-0.3,0.641-1.031,0.294-1.636l-4.418-7.59C354.474,437.248,354.468,437.254,354.462,437.257"/>
<path fill="#FFFFFF" d="M349.842,439.888l-1.862,1.025l4.232,7.696c0.331,0.61,1.03,0.878,1.549,0.592
	c0.519-0.287,0.669-1.017,0.332-1.632l-4.232-7.692C349.853,439.88,349.848,439.885,349.842,439.888"/>
<path fill="#FFFFFF" d="M345.167,442.408l-1.888,0.979l4.038,7.795c0.317,0.619,1.011,0.904,1.535,0.632
	c0.524-0.273,0.694-1,0.372-1.623l-4.04-7.795C345.179,442.4,345.173,442.405,345.167,442.408"/>
<path fill="#FFFFFF" d="M340.426,444.812l-1.911,0.934l3.845,7.892c0.308,0.624,0.994,0.925,1.524,0.669
	c0.532-0.259,0.72-0.987,0.413-1.613l-3.853-7.893C340.438,444.803,340.431,444.808,340.426,444.812"/>
<path fill="#FFFFFF" d="M335.628,447.098l-1.933,0.885l3.653,7.982c0.291,0.639,0.967,0.952,1.508,0.708
	c0.537-0.247,0.737-0.965,0.45-1.602l-3.66-7.985C335.639,447.09,335.635,447.095,335.628,447.098"/>
<path fill="#FFFFFF" d="M330.778,449.267l-1.956,0.842l3.462,8.066c0.27,0.646,0.941,0.975,1.484,0.744
	c0.543-0.235,0.764-0.947,0.488-1.59l-3.46-8.072C330.791,449.259,330.785,449.264,330.778,449.267"/>
<path fill="#FFFFFF" d="M325.876,451.32l-1.974,0.792l3.257,8.148c0.263,0.646,0.92,0.996,1.472,0.78
	c0.55-0.222,0.785-0.928,0.527-1.58l-3.264-8.15C325.888,451.313,325.883,451.317,325.876,451.32"/>
<path fill="#FFFFFF" d="M320.926,453.249l-1.994,0.742l3.063,8.227c0.238,0.656,0.896,1.024,1.446,0.815
	c0.556-0.204,0.811-0.909,0.566-1.563l-3.063-8.232C320.938,453.242,320.933,453.246,320.926,453.249"/>
<path fill="#FFFFFF" d="M315.93,455.057l-2.014,0.695l2.86,8.298c0.225,0.662,0.869,1.045,1.429,0.848
	c0.557-0.188,0.831-0.888,0.602-1.545l-2.858-8.304C315.941,455.051,315.937,455.056,315.93,455.057"/>
<path fill="#FFFFFF" d="M310.894,456.743l-2.033,0.64l2.657,8.371c0.211,0.666,0.843,1.066,1.406,0.883
	c0.563-0.177,0.852-0.87,0.643-1.531l-2.654-8.371C310.905,456.737,310.9,456.741,310.894,456.743"/>
<path fill="#FFFFFF" d="M305.812,458.307l-2.043,0.593l2.448,8.432c0.197,0.667,0.817,1.079,1.385,0.918
	c0.57-0.165,0.873-0.85,0.682-1.517l-2.455-8.434C305.823,458.301,305.818,458.305,305.812,458.307"/>
<path fill="#FFFFFF" d="M300.698,459.744l-2.063,0.541l2.243,8.488c0.182,0.678,0.794,1.105,1.363,0.952
	c0.572-0.15,0.894-0.828,0.718-1.5l-2.242-8.489C300.711,459.738,300.705,459.742,300.698,459.744"/>
<path fill="#FFFFFF" d="M295.546,461.057l-2.071,0.492l2.037,8.539c0.159,0.681,0.765,1.123,1.338,0.982
	c0.573-0.135,0.913-0.805,0.755-1.479l-2.038-8.541C295.56,461.051,295.553,461.055,295.546,461.057"/>
<path fill="#FFFFFF" d="M290.365,462.239l-2.079,0.441l1.825,8.591c0.143,0.681,0.736,1.138,1.314,1.016s0.933-0.782,0.79-1.461
	l-1.827-8.594C290.379,462.234,290.373,462.238,290.365,462.239"/>
<path fill="#FFFFFF" d="M285.162,463.302l-2.096,0.392l1.617,8.629c0.127,0.685,0.706,1.156,1.29,1.044
	c0.58-0.106,0.952-0.754,0.821-1.441l-1.614-8.629C285.174,463.297,285.169,463.301,285.162,463.302"/>
<path fill="#FFFFFF" d="M279.928,464.232l-2.102,0.341l1.4,8.664c0.116,0.69,0.686,1.176,1.268,1.083
	c0.586-0.098,0.968-0.737,0.857-1.429l-1.402-8.666C279.941,464.227,279.936,464.231,279.928,464.232"/>
<path fill="#FFFFFF" d="M274.675,465.037l-2.111,0.285l1.194,8.699c0.093,0.688,0.654,1.193,1.238,1.108
	c0.584-0.079,0.987-0.709,0.894-1.401l-1.193-8.696C274.689,465.033,274.682,465.036,274.675,465.037"/>
<path fill="#FFFFFF" d="M269.404,465.708l-2.113,0.24l0.979,8.721c0.075,0.695,0.62,1.208,1.206,1.144
	c0.59-0.064,1.007-0.689,0.932-1.38l-0.985-8.729C269.418,465.704,269.412,465.707,269.404,465.708"/>
<path fill="#FFFFFF" d="M264.118,466.254l-2.117,0.188l0.762,8.745c0.06,0.693,0.594,1.219,1.183,1.169
	c0.587-0.052,1.021-0.661,0.96-1.358l-0.768-8.749C264.13,466.249,264.125,466.253,264.118,466.254"/>
<path fill="#FFFFFF" d="M258.82,466.669l-2.121,0.139l0.549,8.758c0.045,0.697,0.563,1.236,1.154,1.199
	c0.591-0.035,1.035-0.634,0.994-1.333l-0.555-8.767C258.834,466.666,258.826,466.669,258.82,466.669"/>
<path fill="#FFFFFF" d="M253.518,466.958l-2.127,0.082l0.336,8.774c0.027,0.698,0.533,1.248,1.121,1.227
	c0.589-0.021,1.052-0.614,1.023-1.309l-0.332-8.776C253.532,466.956,253.527,466.958,253.518,466.958"/>
<path fill="#FFFFFF" d="M248.208,467.115l-2.132,0.029l0.123,8.779c0.01,0.7,0.501,1.261,1.092,1.252
	c0.592-0.009,1.066-0.583,1.058-1.283l-0.122-8.78C248.222,467.112,248.215,467.115,248.208,467.115"/>
<path fill="#FFFFFF" d="M242.891,467.142l-2.128-0.021l-0.092,8.777c-0.009,0.701,0.47,1.273,1.062,1.28
	c0.592,0.006,1.082-0.558,1.089-1.257l0.091-8.782C242.905,467.14,242.897,467.142,242.891,467.142"/>
<path fill="#FFFFFF" d="M237.578,467.041l-2.127-0.075l-0.307,8.777c-0.025,0.693,0.438,1.285,1.031,1.304
	c0.59,0.02,1.095-0.531,1.119-1.23l0.307-8.778C237.591,467.038,237.585,467.041,237.578,467.041"/>
<path fill="#FFFFFF" d="M232.269,466.811l-2.124-0.13l-0.522,8.767c-0.041,0.697,0.408,1.294,0.999,1.327
	c0.592,0.036,1.107-0.505,1.148-1.203l0.521-8.762C232.283,466.809,232.276,466.811,232.269,466.811"/>
<path fill="#FFFFFF" d="M226.97,466.449l-2.123-0.184l-0.735,8.751c-0.059,0.698,0.375,1.305,0.966,1.354
	c0.589,0.049,1.119-0.479,1.176-1.172l0.736-8.75C226.984,466.448,226.977,466.45,226.97,466.449"/>
<path fill="#FFFFFF" d="M221.678,465.959l-2.119-0.233l-0.948,8.729c-0.073,0.69,0.344,1.312,0.932,1.377
	c0.589,0.061,1.13-0.452,1.208-1.148l0.948-8.725C221.692,465.958,221.685,465.959,221.678,465.959"/>
<path fill="#FFFFFF" d="M216.4,465.336l-2.111-0.279l-1.161,8.698c-0.091,0.694,0.313,1.32,0.898,1.398
	c0.586,0.083,1.142-0.42,1.234-1.111l1.161-8.706C216.414,465.335,216.406,465.337,216.4,465.336"/>
<path fill="#FFFFFF" d="M211.138,464.588l-2.101-0.333l-1.374,8.667c-0.11,0.691,0.279,1.329,0.863,1.427
	c0.583,0.091,1.152-0.397,1.26-1.09l1.373-8.67C211.152,464.588,211.146,464.589,211.138,464.588"/>
<path fill="#FFFFFF" d="M205.9,463.71l-2.098-0.384l-1.583,8.631c-0.123,0.689,0.247,1.336,0.829,1.444
	c0.58,0.107,1.16-0.365,1.288-1.054l1.584-8.637C205.912,463.71,205.906,463.711,205.9,463.71"/>
<path fill="#FFFFFF" d="M200.68,462.701l-2.082-0.435l-1.797,8.596c-0.144,0.683,0.214,1.342,0.792,1.462
	c0.579,0.119,1.17-0.342,1.31-1.021l1.796-8.601C200.694,462.701,200.688,462.702,200.68,462.701"/>
<path fill="#FFFFFF" d="M195.489,461.572l-2.074-0.486l-2.004,8.547c-0.159,0.68,0.182,1.344,0.758,1.478
	c0.575,0.141,1.177-0.306,1.335-0.985l2.005-8.551C195.502,461.573,195.496,461.574,195.489,461.572"/>
<path fill="#FFFFFF" d="M190.328,460.313l-2.064-0.537l-2.213,8.494c-0.173,0.676,0.15,1.352,0.724,1.497
	c0.571,0.152,1.183-0.277,1.359-0.955l2.215-8.496C190.341,460.314,190.334,460.315,190.328,460.313"/>
<path fill="#FFFFFF" d="M185.197,458.929l-2.049-0.583l-2.419,8.437c-0.191,0.669,0.116,1.353,0.683,1.513
	c0.57,0.16,1.192-0.254,1.385-0.921l2.42-8.442C185.21,458.93,185.204,458.931,185.197,458.929"/>
<path fill="#FFFFFF" d="M180.103,457.42l-2.035-0.639l-2.623,8.377c-0.208,0.666,0.081,1.355,0.646,1.531
	c0.563,0.18,1.196-0.222,1.405-0.889l2.627-8.377C180.115,457.422,180.109,457.422,180.103,457.42"/>
<path fill="#FFFFFF" d="M175.046,455.786l-2.016-0.689l-2.83,8.313c-0.226,0.663,0.048,1.355,0.608,1.55
	c0.558,0.188,1.201-0.197,1.427-0.854l2.83-8.315C175.059,455.788,175.051,455.788,175.046,455.786"/>
<path fill="#FFFFFF" d="M170.029,454.03l-1.999-0.739l-3.03,8.244c-0.24,0.648,0.017,1.354,0.571,1.557
	c0.556,0.208,1.207-0.162,1.448-0.819l3.031-8.237C170.043,454.032,170.036,454.032,170.029,454.03"/>
<path fill="#FFFFFF" d="M165.06,452.152l-1.98-0.785l-3.232,8.161c-0.257,0.649-0.017,1.355,0.533,1.576
	c0.549,0.215,1.209-0.135,1.466-0.784l3.233-8.163C165.073,452.155,165.066,452.155,165.06,452.152"/>
<path fill="#FFFFFF" d="M160.136,450.149l-1.96-0.831l-3.431,8.082c-0.272,0.643-0.049,1.357,0.496,1.587
	c0.542,0.233,1.21-0.105,1.483-0.749l3.432-8.083C160.151,450.152,160.144,450.152,160.136,450.149"/>
<path fill="#FFFFFF" d="M155.263,448.03l-1.939-0.88l-3.626,7.995c-0.29,0.637-0.085,1.353,0.455,1.6
	c0.537,0.246,1.213-0.075,1.502-0.712l3.628-7.997C155.277,448.033,155.27,448.033,155.263,448.03"/>
<path fill="#FFFFFF" d="M150.443,445.792l-1.918-0.927l-3.82,7.904c-0.303,0.632-0.115,1.354,0.416,1.612
	c0.533,0.254,1.219-0.045,1.52-0.677l3.822-7.906C150.456,445.796,150.449,445.795,150.443,445.792"/>
<path fill="#FFFFFF" d="M145.681,443.439l-1.896-0.975l-4.012,7.807c-0.319,0.623-0.151,1.354,0.377,1.619
	c0.525,0.273,1.215-0.014,1.537-0.632l4.014-7.813C145.694,443.443,145.687,443.442,145.681,443.439"/>
<path fill="#FFFFFF" d="M140.975,440.969l-1.869-1.02l-4.203,7.71c-0.332,0.609-0.183,1.344,0.339,1.625
	c0.518,0.285,1.215,0.013,1.55-0.599l4.205-7.709C140.988,440.973,140.981,440.972,140.975,440.969"/>
<path fill="#FFFFFF" d="M136.333,438.385l-1.846-1.066l-4.388,7.602c-0.349,0.607-0.214,1.34,0.297,1.637
	c0.511,0.3,1.214,0.044,1.564-0.559l4.391-7.605C136.347,438.39,136.34,438.389,136.333,438.385"/>
<path fill="#FFFFFF" d="M131.753,435.688l-1.817-1.11l-4.575,7.493c-0.361,0.593-0.247,1.334,0.256,1.645
	c0.507,0.305,1.216,0.071,1.58-0.523l4.575-7.494C131.766,435.693,131.759,435.692,131.753,435.688"/>
<path fill="#FFFFFF" d="M127.244,432.877l-1.79-1.15l-4.756,7.376c-0.38,0.59-0.281,1.328,0.215,1.65
	c0.497,0.321,1.214,0.103,1.59-0.484l4.759-7.384C127.256,432.882,127.25,432.88,127.244,432.877"/>
<path fill="#FFFFFF" d="M122.803,429.961l-1.761-1.197l-4.934,7.26c-0.393,0.58-0.313,1.322,0.174,1.653
	c0.49,0.335,1.212,0.132,1.604-0.443l4.936-7.263C122.815,429.967,122.808,429.965,122.803,429.961"/>
<path fill="#FFFFFF" d="M118.434,426.936l-1.732-1.241l-5.11,7.14c-0.407,0.568-0.344,1.313,0.136,1.657
	c0.48,0.347,1.206,0.161,1.612-0.406l5.112-7.14C118.447,426.941,118.439,426.939,118.434,426.936"/>
<path fill="#FFFFFF" d="M114.141,423.805l-1.702-1.281l-5.285,7.013c-0.419,0.554-0.375,1.304,0.097,1.657
	c0.473,0.356,1.202,0.191,1.623-0.363l5.284-7.014C114.152,423.811,114.147,423.809,114.141,423.805"/>
<path fill="#FFFFFF" d="M109.925,420.57l-1.671-1.321l-5.452,6.877c-0.433,0.545-0.409,1.295,0.055,1.663
	c0.463,0.369,1.197,0.219,1.63-0.328l5.456-6.88C109.938,420.577,109.931,420.574,109.925,420.57"/>
<path fill="#FFFFFF" d="M105.79,417.232l-1.637-1.364l-5.62,6.745c-0.445,0.535-0.439,1.284,0.015,1.662
	c0.455,0.381,1.192,0.253,1.638-0.287l5.62-6.745C105.8,417.239,105.794,417.237,105.79,417.232"/>
<path fill="#FFFFFF" d="M101.738,413.793l-1.603-1.401l-5.783,6.605c-0.458,0.524-0.472,1.272-0.026,1.662
	c0.443,0.393,1.184,0.277,1.644-0.247l5.784-6.607C101.75,413.8,101.743,413.798,101.738,413.793"/>
<path fill="#FFFFFF" d="M97.77,410.257l-1.568-1.438l-5.943,6.464c-0.471,0.513-0.502,1.263-0.065,1.659
	c0.434,0.4,1.175,0.309,1.648-0.205l5.944-6.468C97.782,410.264,97.775,410.262,97.77,410.257"/>
<path fill="#FFFFFF" d="M93.892,406.628l-1.533-1.478l-6.1,6.313c-0.483,0.501-0.531,1.25-0.106,1.662
	c0.425,0.411,1.168,0.335,1.654-0.17l6.101-6.314C93.903,406.636,93.896,406.632,93.892,406.628"/>
<path fill="#FFFFFF" d="M90.1,402.904l-1.494-1.52l-6.251,6.167c-0.498,0.488-0.563,1.234-0.148,1.656
	c0.415,0.422,1.16,0.365,1.657-0.123l6.253-6.168C90.112,402.912,90.104,402.909,90.1,402.904"/>
<path fill="#FFFFFF" d="M86.403,399.086l-1.458-1.548l-6.4,6.007c-0.508,0.476-0.593,1.221-0.188,1.651
	c0.403,0.434,1.151,0.394,1.659-0.082l6.402-6.016C86.414,399.094,86.408,399.091,86.403,399.086"/>
<path fill="#FFFFFF" d="M82.801,395.18l-1.421-1.585l-6.543,5.852c-0.521,0.464-0.624,1.207-0.23,1.648
	c0.394,0.439,1.142,0.421,1.661-0.043l6.548-5.854C82.811,395.191,82.805,395.185,82.801,395.18"/>
<path fill="#FFFFFF" d="M79.293,391.188l-1.381-1.619l-6.685,5.691c-0.533,0.452-0.652,1.188-0.271,1.637
	c0.384,0.452,1.132,0.45,1.663-0.003l6.687-5.688C79.303,391.2,79.299,391.195,79.293,391.188"/>
<path fill="#FFFFFF" d="M75.884,387.113l-1.34-1.653l-6.822,5.522c-0.543,0.44-0.681,1.177-0.31,1.637
	c0.373,0.459,1.12,0.476,1.663,0.037l6.825-5.529C75.896,387.122,75.89,387.119,75.884,387.113"/>
<path fill="#FFFFFF" d="M72.577,382.955l-1.299-1.689l-6.957,5.357c-0.552,0.427-0.709,1.158-0.348,1.628
	c0.361,0.468,1.108,0.503,1.661,0.076l6.959-5.358C72.588,382.962,72.582,382.959,72.577,382.955"/>
<path fill="#FFFFFF" d="M69.371,378.715l-1.257-1.716l-7.083,5.182c-0.564,0.413-0.739,1.142-0.39,1.619
	c0.349,0.477,1.096,0.53,1.658,0.118l7.086-5.188C69.381,378.725,69.375,378.721,69.371,378.715"/>
<path fill="#FFFFFF" d="M66.271,374.402l-1.214-1.75l-7.209,5.009c-0.573,0.398-0.765,1.125-0.429,1.608
	c0.338,0.487,1.082,0.558,1.655,0.158l7.211-5.01C66.281,374.412,66.275,374.408,66.271,374.402"/>
<path fill="#FFFFFF" d="M63.277,370.012l-1.173-1.777l-7.329,4.833c-0.581,0.385-0.791,1.099-0.467,1.591
	c0.327,0.495,1.068,0.588,1.651,0.203l7.333-4.834C63.288,370.021,63.281,370.018,63.277,370.012"/>
<path fill="#FFFFFF" d="M60.392,365.551l-1.128-1.806l-7.447,4.648c-0.591,0.371-0.819,1.085-0.505,1.586
	c0.313,0.501,1.055,0.608,1.645,0.238l7.447-4.653C60.401,365.559,60.396,365.557,60.392,365.551"/>
<path fill="#FFFFFF" d="M57.614,361.021l-1.083-1.838l-7.557,4.474c-0.6,0.352-0.845,1.06-0.544,1.568s1.039,0.635,1.639,0.281
	l7.559-4.469C57.623,361.031,57.618,361.026,57.614,361.021"/>
<path fill="#FFFFFF" d="M54.95,356.42l-1.038-1.858l-7.664,4.285c-0.609,0.336-0.872,1.038-0.583,1.554
	c0.29,0.516,1.023,0.663,1.634,0.321l7.663-4.285C54.958,356.431,54.952,356.426,54.95,356.42"/>
<path fill="#FFFFFF" d="M52.399,351.76l-0.995-1.883l-7.765,4.094c-0.616,0.322-0.896,1.019-0.62,1.541
	c0.276,0.522,1.005,0.687,1.623,0.36l7.768-4.096C52.408,351.771,52.401,351.766,52.399,351.76"/>
<path fill="#FFFFFF" d="M49.962,347.037l-0.946-1.905l-7.865,3.903c-0.625,0.308-0.919,0.997-0.657,1.523
	c0.262,0.53,0.991,0.713,1.613,0.399l7.868-3.902C49.97,347.048,49.965,347.043,49.962,347.037"/>
<path fill="#FFFFFF" d="M47.641,342.256l-0.9-1.929l-7.957,3.71c-0.631,0.295-0.944,0.977-0.694,1.513
	c0.25,0.534,0.972,0.729,1.604,0.438l7.957-3.715C47.649,342.266,47.644,342.261,47.641,342.256"/>
<path fill="#FFFFFF" d="M45.438,337.419l-0.851-1.949l-8.047,3.515c-0.638,0.281-0.968,0.951-0.731,1.491
	c0.236,0.547,0.952,0.759,1.593,0.479l8.048-3.513C45.446,337.436,45.441,337.43,45.438,337.419"/>
<path fill="#FFFFFF" d="M43.353,332.531l-0.805-1.97l-8.128,3.319c-0.645,0.262-0.992,0.928-0.77,1.476
	c0.225,0.544,0.938,0.779,1.583,0.514l8.13-3.315C43.36,332.549,43.356,332.542,43.353,332.531"/>
<path fill="#FFFFFF" d="M41.389,327.595l-0.755-1.988l-8.207,3.118c-0.652,0.243-1.015,0.902-0.805,1.452
	c0.211,0.553,0.916,0.804,1.568,0.555l8.209-3.118C41.396,327.606,41.392,327.602,41.389,327.595"/>
<path fill="#FFFFFF" d="M39.546,322.613l-0.707-2.008l-8.283,2.914c-0.656,0.234-1.034,0.876-0.837,1.436
	c0.196,0.561,0.896,0.823,1.553,0.595l8.282-2.919C39.553,322.624,39.548,322.619,39.546,322.613"/>
<path fill="#FFFFFF" d="M37.825,317.586l-0.659-2.028l-8.348,2.713c-0.664,0.218-1.058,0.854-0.873,1.418
	c0.182,0.563,0.874,0.843,1.538,0.63l8.351-2.713C37.832,317.598,37.827,317.593,37.825,317.586"/>
<path fill="#FFFFFF" d="M36.228,312.516l-0.61-2.039l-8.413,2.506c-0.668,0.202-1.075,0.826-0.907,1.396
	c0.169,0.565,0.854,0.869,1.522,0.666l8.416-2.511C36.234,312.527,36.23,312.522,36.228,312.516"/>
<path fill="#FFFFFF" d="M34.753,307.412l-0.557-2.056l-8.472,2.302c-0.672,0.185-1.097,0.798-0.943,1.374
	c0.155,0.567,0.832,0.887,1.506,0.702l8.474-2.304C34.759,307.425,34.755,307.419,34.753,307.412"/>
<path fill="#FFFFFF" d="M33.405,302.27l-0.507-2.064l-8.525,2.091c-0.678,0.168-1.117,0.773-0.977,1.347
	c0.142,0.577,0.811,0.914,1.489,0.742l8.526-2.095C33.411,302.283,33.407,302.277,33.405,302.27"/>
<path fill="#FFFFFF" d="M32.185,297.103l-0.458-2.082l-8.576,1.884c-0.681,0.154-1.135,0.747-1.006,1.323
	c0.125,0.58,0.788,0.927,1.468,0.778l8.579-1.884C32.19,297.115,32.187,297.109,32.185,297.103"/>
<path fill="#FFFFFF" d="M31.09,291.899l-0.407-2.089l-8.62,1.675c-0.685,0.133-1.152,0.718-1.038,1.296
	c0.111,0.58,0.765,0.948,1.449,0.816l8.621-1.677C31.095,291.912,31.091,291.906,31.09,291.899"/>
<path fill="#FFFFFF" d="M30.12,286.675l-0.354-2.097l-8.657,1.465c-0.687,0.114-1.168,0.684-1.071,1.271
	c0.1,0.579,0.742,0.962,1.431,0.848l8.658-1.469C30.126,286.687,30.121,286.681,30.12,286.675"/>
<path fill="#FFFFFF" d="M29.281,281.428l-0.305-2.104l-8.689,1.253c-0.69,0.097-1.186,0.657-1.103,1.241
	c0.085,0.587,0.718,0.986,1.411,0.882l8.69-1.247C29.285,281.445,29.282,281.438,29.281,281.428"/>
<path fill="#FFFFFF" d="M28.571,276.164l-0.254-2.113l-8.717,1.037c-0.693,0.08-1.201,0.633-1.132,1.219
	c0.069,0.584,0.693,0.997,1.386,0.916l8.722-1.039C28.574,276.177,28.572,276.171,28.571,276.164"/>
<path fill="#FFFFFF" d="M27.987,270.883l-0.201-2.122l-8.739,0.827c-0.695,0.066-1.219,0.6-1.164,1.191
	c0.058,0.587,0.669,1.016,1.365,0.95l8.742-0.826C27.991,270.896,27.988,270.889,27.987,270.883"/>
<path fill="#FFFFFF" d="M27.533,265.589l-0.15-2.128l-8.757,0.613c-0.695,0.053-1.231,0.574-1.19,1.161
	c0.042,0.59,0.644,1.031,1.339,0.984l8.762-0.611C27.536,265.603,27.534,265.596,27.533,265.589"/>
<path fill="#FFFFFF" d="M27.208,260.283l-0.096-2.128l-8.771,0.4c-0.696,0.031-1.244,0.539-1.218,1.132
	c0.027,0.588,0.619,1.047,1.315,1.016l8.771-0.398C27.211,260.297,27.208,260.29,27.208,260.283"/>
<path fill="#FFFFFF" d="M27.014,254.973l-0.044-2.127l-8.776,0.186c-0.697,0.014-1.258,0.509-1.247,1.1
	c0.013,0.587,0.594,1.058,1.292,1.044l8.78-0.181C27.018,254.986,27.014,254.979,27.014,254.973"/>
<path fill="#FFFFFF" d="M26.95,249.66l0.006-2.13l-8.777-0.032c-0.697-0.002-1.272,0.479-1.274,1.071
	c-0.002,0.593,0.569,1.078,1.266,1.08l8.78,0.031C26.951,249.674,26.95,249.667,26.95,249.66"/>
<path fill="#FFFFFF" d="M27.016,244.346l0.06-2.129l-8.776-0.245c-0.698-0.021-1.281,0.449-1.299,1.04
	c-0.017,0.592,0.542,1.091,1.238,1.111l8.78,0.245C27.018,244.36,27.016,244.353,27.016,244.346"/>
<path fill="#FFFFFF" d="M27.209,239.035l0.112-2.125l-8.768-0.462c-0.696-0.036-1.291,0.418-1.321,1.009
	c-0.031,0.591,0.513,1.104,1.209,1.14l8.769,0.46C27.211,239.049,27.209,239.042,27.209,239.035"/>
<path fill="#FFFFFF" d="M27.535,233.731l0.165-2.121l-8.755-0.674c-0.695-0.056-1.302,0.383-1.346,0.974
	c-0.046,0.59,0.486,1.116,1.181,1.168l8.756,0.673C27.536,233.745,27.534,233.738,27.535,233.731"/>
<path fill="#FFFFFF" d="M27.99,228.437l0.214-2.116l-8.733-0.887c-0.696-0.071-1.311,0.351-1.371,0.94s0.458,1.127,1.152,1.2
	l8.737,0.886C27.991,228.45,27.989,228.443,27.99,228.437"/>
<path fill="#FFFFFF" d="M28.574,223.157l0.267-2.114l-8.71-1.101c-0.693-0.086-1.319,0.323-1.395,0.908
	c-0.073,0.587,0.431,1.137,1.124,1.227l8.714,1.101C28.575,223.171,28.573,223.164,28.574,223.157"/>
<path fill="#FFFFFF" d="M29.286,217.89l0.317-2.105l-8.679-1.313c-0.689-0.105-1.327,0.288-1.415,0.873
	c-0.089,0.585,0.405,1.148,1.095,1.252l8.682,1.314C29.286,217.904,29.285,217.897,29.286,217.89"/>
<path fill="#FFFFFF" d="M30.126,212.643l0.37-2.096l-8.646-1.524c-0.688-0.123-1.333,0.256-1.435,0.838
	c-0.104,0.58,0.375,1.157,1.063,1.279l8.647,1.524C30.126,212.657,30.125,212.65,30.126,212.643"/>
<path fill="#FFFFFF" d="M31.096,207.419l0.42-2.088l-8.606-1.734c-0.683-0.139-1.338,0.224-1.456,0.801
	c-0.116,0.581,0.348,1.169,1.032,1.305l8.609,1.737C31.096,207.434,31.095,207.426,31.096,207.419"/>
<path fill="#FFFFFF" d="M32.192,202.219l0.47-2.076l-8.561-1.946c-0.68-0.153-1.345,0.191-1.474,0.769
	c-0.131,0.574,0.318,1.174,0.998,1.329l8.566,1.944C32.191,202.232,32.19,202.226,32.192,202.219"/>
<path fill="#FFFFFF" d="M33.413,197.048l0.523-2.064l-8.512-2.154c-0.675-0.172-1.347,0.158-1.492,0.73
	c-0.146,0.574,0.289,1.184,0.964,1.355l8.513,2.153C33.412,197.062,33.411,197.055,33.413,197.048"/>
<path fill="#FFFFFF" d="M34.761,191.909l0.574-2.051l-8.456-2.362c-0.672-0.187-1.352,0.127-1.511,0.694
	c-0.159,0.571,0.262,1.191,0.933,1.379l8.457,2.36C34.76,191.922,34.759,191.916,34.761,191.909"/>
<path fill="#FFFFFF" d="M36.236,186.803l0.623-2.036l-8.396-2.569c-0.667-0.204-1.354,0.094-1.527,0.658
	c-0.173,0.567,0.232,1.196,0.899,1.4l8.398,2.567C36.234,186.817,36.234,186.811,36.236,186.803"/>
<path fill="#FFFFFF" d="M37.834,181.734l0.67-2.02l-8.328-2.771c-0.662-0.219-1.356,0.059-1.543,0.62
	c-0.187,0.561,0.203,1.201,0.865,1.42l8.332,2.772C37.833,181.749,37.833,181.742,37.834,181.734"/>
<path fill="#FFFFFF" d="M39.556,176.709l0.721-2.003l-8.26-2.975c-0.656-0.237-1.356,0.025-1.557,0.583
	c-0.201,0.555,0.173,1.204,0.83,1.44l8.262,2.977C39.554,176.724,39.554,176.716,39.556,176.709"/>
<path fill="#FFFFFF" d="M41.399,171.725l0.771-1.986l-8.185-3.173c-0.65-0.252-1.357-0.007-1.571,0.542
	c-0.214,0.553,0.142,1.21,0.792,1.462l8.188,3.174C41.397,171.738,41.397,171.732,41.399,171.725"/>
<path fill="#FFFFFF" d="M43.364,166.787l0.82-1.965l-8.107-3.375c-0.644-0.266-1.357-0.04-1.584,0.504
	c-0.228,0.548,0.115,1.214,0.759,1.483l8.106,3.373C43.362,166.802,43.362,166.795,43.364,166.787"/>
<path fill="#FFFFFF" d="M45.45,161.9l0.865-1.946l-8.019-3.571c-0.639-0.282-1.356-0.072-1.596,0.466
	c-0.24,0.542,0.084,1.217,0.721,1.499l8.023,3.572C45.447,161.914,45.447,161.907,45.45,161.9"/>
<path fill="#FFFFFF" d="M47.653,157.065l0.915-1.923l-7.931-3.765c-0.631-0.302-1.353-0.109-1.606,0.426
	c-0.255,0.533,0.054,1.215,0.684,1.514l7.932,3.766C47.65,157.077,47.65,157.071,47.653,157.065"/>
<path fill="#FFFFFF" d="M49.976,152.286l0.959-1.902l-7.834-3.958c-0.623-0.314-1.35-0.139-1.616,0.389
	c-0.269,0.525,0.023,1.217,0.646,1.531l7.839,3.96C49.972,152.299,49.973,152.292,49.976,152.286"/>
<path fill="#FFFFFF" d="M52.413,147.563l1.006-1.875l-7.735-4.15c-0.615-0.329-1.348-0.172-1.628,0.35
	c-0.278,0.52-0.004,1.216,0.61,1.547l7.74,4.149C52.409,147.575,52.41,147.568,52.413,147.563"/>
<path fill="#FFFFFF" d="M54.964,142.902l1.052-1.852l-7.632-4.335c-0.607-0.346-1.341-0.206-1.634,0.308
	c-0.293,0.513-0.036,1.215,0.571,1.56l7.636,4.339C54.959,142.917,54.96,142.907,54.964,142.902"/>
<path fill="#FFFFFF" d="M57.629,138.306l1.097-1.825l-7.525-4.523c-0.597-0.358-1.337-0.238-1.641,0.269
	c-0.304,0.507-0.063,1.216,0.533,1.574l7.526,4.525C57.625,138.32,57.625,138.313,57.629,138.306"/>
<path fill="#FFFFFF" d="M60.407,133.774l1.142-1.798l-7.412-4.704c-0.589-0.375-1.331-0.271-1.647,0.228
	c-0.316,0.499-0.094,1.215,0.494,1.585l7.416,4.707C60.402,133.787,60.403,133.78,60.407,133.774"/>
<path fill="#FFFFFF" d="M63.294,129.313l1.184-1.771l-7.296-4.884c-0.579-0.386-1.323-0.302-1.651,0.188
	c-0.331,0.491-0.125,1.213,0.456,1.598l7.296,4.886C63.289,129.326,63.291,129.319,63.294,129.313"/>
<path fill="#FFFFFF" d="M66.288,124.924l1.228-1.739l-7.172-5.061c-0.571-0.402-1.316-0.337-1.658,0.148
	c-0.338,0.482-0.153,1.206,0.417,1.608l7.175,5.062C66.282,124.938,66.284,124.932,66.288,124.924"/>
<path fill="#FFFFFF" d="M69.389,120.609l1.27-1.71l-7.048-5.232c-0.559-0.416-1.306-0.369-1.658,0.105
	c-0.353,0.475-0.183,1.205,0.376,1.621l7.051,5.235C69.383,120.621,69.385,120.615,69.389,120.609"/>
<path fill="#FFFFFF" d="M72.596,116.371l1.31-1.678l-6.918-5.406c-0.549-0.429-1.295-0.399-1.66,0.065
	c-0.366,0.468-0.214,1.201,0.336,1.63l6.922,5.406C72.589,116.382,72.592,116.377,72.596,116.371"/>
<path fill="#FFFFFF" d="M75.903,112.212l1.352-1.645l-6.784-5.572c-0.538-0.443-1.288-0.432-1.662,0.026
	c-0.375,0.457-0.242,1.191,0.297,1.634l6.787,5.575C75.897,112.224,75.899,112.218,75.903,112.212"/>
<path fill="#FFFFFF" d="M79.312,108.136l1.391-1.61l-6.646-5.738c-0.526-0.455-1.274-0.462-1.66-0.014
	c-0.388,0.447-0.271,1.186,0.255,1.642l6.649,5.738C79.305,108.148,79.307,108.142,79.312,108.136"/>
<path fill="#FFFFFF" d="M82.82,104.145l1.43-1.577l-6.503-5.897c-0.516-0.469-1.265-0.492-1.663-0.055
	c-0.396,0.438-0.299,1.179,0.216,1.648l6.507,5.899C82.813,104.157,82.814,104.15,82.82,104.145"/>
<path fill="#FFFFFF" d="M86.423,100.238l1.47-1.541l-6.359-6.055c-0.505-0.48-1.252-0.523-1.661-0.095
	c-0.406,0.429-0.327,1.172,0.177,1.652l6.36,6.059C86.415,100.251,86.418,100.243,86.423,100.238"/>
<path fill="#FFFFFF" d="M90.122,96.424l1.504-1.506l-6.207-6.208c-0.493-0.494-1.238-0.555-1.657-0.136
	c-0.417,0.418-0.357,1.162,0.139,1.655l6.208,6.21C90.114,96.434,90.117,96.429,90.122,96.424"/>
<path fill="#FFFFFF" d="M93.912,92.699l1.542-1.467l-6.055-6.359c-0.481-0.504-1.224-0.583-1.652-0.178
	c-0.428,0.408-0.386,1.157,0.096,1.661l6.058,6.36C93.904,92.711,93.907,92.705,93.912,92.699"/>
<path fill="#FFFFFF" d="M97.792,89.069l1.577-1.429l-5.896-6.506c-0.468-0.515-1.211-0.611-1.649-0.216
	c-0.438,0.397-0.413,1.147,0.055,1.662l5.9,6.504C97.783,89.08,97.787,89.074,97.792,89.069"/>
<path fill="#FFFFFF" d="M101.759,85.534l1.611-1.391l-5.735-6.646c-0.457-0.527-1.194-0.645-1.642-0.258
	c-0.447,0.388-0.442,1.136,0.014,1.662l5.739,6.648C101.75,85.545,101.754,85.539,101.759,85.534"/>
<path fill="#FFFFFF" d="M105.812,82.099l1.646-1.352l-5.572-6.785c-0.441-0.537-1.181-0.672-1.636-0.296
	c-0.457,0.375-0.469,1.122-0.025,1.661l5.573,6.787C105.802,82.109,105.806,82.104,105.812,82.099"/>
<path fill="#FFFFFF" d="M109.949,78.763l1.676-1.313l-5.405-6.916c-0.429-0.552-1.162-0.702-1.626-0.339
	c-0.466,0.365-0.497,1.112-0.068,1.663l5.408,6.919C109.94,78.772,109.943,78.767,109.949,78.763"/>
<path fill="#FFFFFF" d="M114.164,75.527l1.709-1.27l-5.233-7.048c-0.417-0.561-1.144-0.73-1.62-0.377
	c-0.475,0.354-0.523,1.1-0.107,1.658l5.237,7.05C114.154,75.536,114.158,75.531,114.164,75.527"/>
<path fill="#FFFFFF" d="M118.457,72.396l1.741-1.227l-5.061-7.176c-0.402-0.567-1.127-0.756-1.609-0.416
	c-0.482,0.342-0.55,1.086-0.148,1.657l5.063,7.175C118.448,72.406,118.451,72.4,118.457,72.396"/>
<path fill="#FFFFFF" d="M122.827,69.371l1.77-1.185l-4.884-7.295c-0.389-0.578-1.107-0.783-1.599-0.455
	c-0.492,0.33-0.577,1.073-0.188,1.652l4.885,7.297C122.817,69.382,122.821,69.376,122.827,69.371"/>
<path fill="#FFFFFF" d="M127.268,66.454l1.798-1.14l-4.705-7.412c-0.374-0.59-1.087-0.813-1.586-0.495
	c-0.501,0.315-0.603,1.056-0.228,1.646l4.704,7.414C127.258,66.463,127.262,66.458,127.268,66.454"/>
<path fill="#FFFFFF" d="M131.779,63.647l1.825-1.097l-4.52-7.524c-0.36-0.6-1.069-0.84-1.575-0.534
	c-0.506,0.304-0.627,1.042-0.267,1.641l4.521,7.528C131.768,63.657,131.773,63.652,131.779,63.647"/>
<path fill="#FFFFFF" d="M136.359,60.951l1.851-1.052l-4.336-7.634c-0.344-0.605-1.046-0.862-1.561-0.571
	c-0.514,0.29-0.652,1.028-0.31,1.632l4.34,7.638C136.349,60.96,136.353,60.955,136.359,60.951"/>
<path fill="#FFFFFF" d="M141.001,58.367l1.876-1.007l-4.147-7.735c-0.331-0.616-1.026-0.89-1.548-0.61
	c-0.521,0.279-0.678,1.01-0.347,1.625l4.149,7.74C140.992,58.375,140.997,58.37,141.001,58.367"/>
<path fill="#FFFFFF" d="M145.707,55.897l1.9-0.959l-3.957-7.838c-0.315-0.622-1.004-0.914-1.532-0.647
	c-0.528,0.268-0.703,0.996-0.387,1.619l3.96,7.838C145.697,55.905,145.701,55.9,145.707,55.897"/>
<path fill="#FFFFFF" d="M150.47,53.542l1.924-0.912l-3.766-7.932c-0.299-0.629-0.982-0.938-1.517-0.685
	c-0.532,0.255-0.725,0.978-0.427,1.609l3.767,7.931C150.459,53.55,150.464,53.545,150.47,53.542"/>
<path fill="#FFFFFF" d="M155.291,51.305l1.945-0.866l-3.571-8.02c-0.285-0.637-0.959-0.961-1.498-0.72
	c-0.542,0.24-0.751,0.958-0.466,1.595l3.571,8.022C155.278,51.313,155.284,51.309,155.291,51.305"/>
<path fill="#FFFFFF" d="M160.164,49.188l1.966-0.819l-3.376-8.105c-0.268-0.643-0.933-0.983-1.479-0.757
	c-0.546,0.227-0.773,0.938-0.504,1.583l3.375,8.108C160.152,49.195,160.157,49.191,160.164,49.188"/>
<path fill="#FFFFFF" d="M165.087,47.189l1.986-0.771l-3.175-8.185c-0.252-0.651-0.909-1.006-1.462-0.793
	c-0.549,0.214-0.796,0.92-0.542,1.571l3.175,8.188C165.075,47.196,165.08,47.192,165.087,47.189"/>
<path fill="#FFFFFF" d="M170.057,45.311l2.004-0.722l-2.974-8.26c-0.236-0.656-0.884-1.03-1.44-0.83
	c-0.557,0.201-0.817,0.901-0.582,1.558l2.973,8.262C170.045,45.317,170.05,45.313,170.057,45.311"/>
<path fill="#FFFFFF" d="M175.073,43.554l2.02-0.672l-2.77-8.33c-0.221-0.663-0.86-1.051-1.422-0.864
	c-0.559,0.188-0.84,0.88-0.619,1.542l2.771,8.332C175.061,43.561,175.066,43.556,175.073,43.554"/>
<path fill="#FFFFFF" d="M180.13,41.922l2.036-0.623l-2.568-8.397c-0.203-0.667-0.832-1.068-1.397-0.898
	c-0.566,0.174-0.862,0.861-0.658,1.528l2.568,8.399C180.119,41.928,180.124,41.924,180.13,41.922"/>
<path fill="#FFFFFF" d="M185.226,40.413l2.051-0.572l-2.362-8.456c-0.187-0.673-0.805-1.092-1.375-0.934
	c-0.571,0.16-0.883,0.839-0.694,1.511l2.362,8.458C185.212,40.418,185.219,40.415,185.226,40.413"/>
<path fill="#FFFFFF" d="M190.355,39.03l2.064-0.521l-2.154-8.514c-0.168-0.675-0.778-1.111-1.353-0.964
	c-0.571,0.146-0.902,0.817-0.729,1.494l2.154,8.512C190.344,39.035,190.35,39.032,190.355,39.03"/>
<path fill="#FFFFFF" d="M195.518,37.77l2.076-0.471l-1.942-8.561c-0.156-0.682-0.754-1.13-1.33-1
	c-0.578,0.133-0.924,0.796-0.769,1.477l1.946,8.562C195.504,37.775,195.51,37.772,195.518,37.77"/>
<path fill="#FFFFFF" d="M200.708,36.638l2.089-0.42l-1.735-8.606c-0.139-0.683-0.724-1.148-1.306-1.029
	c-0.58,0.116-0.939,0.77-0.802,1.454l1.736,8.608C200.697,36.643,200.701,36.639,200.708,36.638"/>
<path fill="#FFFFFF" d="M205.928,35.635l2.096-0.371l-1.524-8.646c-0.12-0.687-0.697-1.165-1.278-1.062
	c-0.583,0.103-0.961,0.75-0.839,1.435l1.525,8.649C205.915,35.64,205.921,35.636,205.928,35.635"/>
<path fill="#FFFFFF" d="M211.168,34.759l2.106-0.32l-1.313-8.679c-0.103-0.69-0.667-1.182-1.253-1.094
	c-0.584,0.089-0.977,0.724-0.873,1.417l1.313,8.683C211.155,34.763,211.161,34.76,211.168,34.759"/>
<path fill="#FFFFFF" d="M216.429,34.009l2.114-0.267l-1.1-8.709c-0.089-0.691-0.64-1.197-1.227-1.123
	c-0.587,0.072-0.994,0.7-0.909,1.392l1.102,8.712C216.416,34.013,216.422,34.01,216.429,34.009"/>
<path fill="#FFFFFF" d="M221.708,33.389l2.118-0.212l-0.887-8.736c-0.071-0.695-0.608-1.211-1.198-1.152
	c-0.59,0.059-1.012,0.676-0.941,1.37l0.888,8.736C221.695,33.393,221.7,33.39,221.708,33.389"/>
<path fill="#FFFFFF" d="M226.999,32.899l2.122-0.162l-0.673-8.755c-0.053-0.694-0.578-1.226-1.168-1.181
	c-0.59,0.043-1.03,0.651-0.975,1.347l0.674,8.755C226.986,32.902,226.992,32.9,226.999,32.899"/>
<path fill="#FFFFFF" d="M232.301,32.539l2.125-0.111l-0.459-8.767c-0.037-0.697-0.549-1.242-1.14-1.212
	c-0.591,0.032-1.045,0.627-1.008,1.323l0.459,8.771C232.285,32.542,232.293,32.539,232.301,32.539"/>
<path fill="#FFFFFF" d="M238.353,32.308l2.127-0.062l-0.245-8.774c-0.02-0.696-0.518-1.255-1.111-1.238
	c-0.588,0.015-1.059,0.601-1.037,1.298l0.245,8.779C238.34,32.311,238.347,32.308,238.353,32.308"/>
<path fill="none" stroke="#FFFFFF" stroke-width="1.0064" d="M448.692,248.677c0,112.548-91.242,203.786-203.793,203.786
	c-112.548,0-203.791-91.238-203.791-203.786c0-112.553,91.243-203.794,203.791-203.794
	C357.45,44.883,448.692,136.124,448.692,248.677z"/>
</svg>
