<?xml version="1.0" encoding="UTF-8" standalone="no"?><!DOCTYPE svg PUBLIC "-//W3C//DTD SVG 1.1//EN" "http://www.w3.org/Graphics/SVG/1.1/DTD/svg11.dtd"><svg width="100%" height="100%" viewBox="0 0 417 417" version="1.1" xmlns="http://www.w3.org/2000/svg" xmlns:xlink="http://www.w3.org/1999/xlink" xml:space="preserve" xmlns:serif="http://www.serif.com/" style="fill-rule:evenodd;clip-rule:evenodd;stroke-linejoin:round;stroke-miterlimit:2;"><g id="_---RETINAICONS--illustrator-" serif:id="---RETINAICONS (illustrator)"><g id="river2"><path d="M334.008,285.806c-28.142,-20.17 -57.99,-8.771 -69.699,-0c-25.606,18.339 -50.095,0.814 -51.227,-0c-28.134,-20.17 -57.982,-8.771 -69.699,-0c-25.606,18.339 -50.087,0.814 -51.219,-0c-28.142,-20.17 -57.982,-8.755 -69.831,0.093l9.492,12.066c0.248,-0.179 25.264,-18.425 50.971,-0c11.849,8.856 41.689,20.247 69.955,-0c0.248,-0.179 25.249,-18.425 50.971,-0c11.849,8.856 41.689,20.247 69.947,-0c0.248,-0.179 25.257,-18.425 50.979,-0c6.979,5.219 20.216,11.322 35.671,11.322c10.764,-0 22.597,-2.955 34.152,-11.221l-9.244,-12.26c-25.606,18.339 -50.095,0.814 -51.219,-0" style="fill:#6DAF9F;"/><path d="M334.008,227.472c-28.142,-20.17 -57.99,-8.77 -69.699,0c-25.606,18.34 -50.095,0.814 -51.227,0c-28.134,-20.17 -57.982,-8.77 -69.699,0c-25.606,18.34 -50.087,0.814 -51.219,0c-28.142,-20.17 -57.982,-8.755 -69.831,0.093l9.492,12.066c0.248,-0.178 25.264,-18.425 50.971,0c11.849,8.856 41.689,20.248 69.955,0c0.248,-0.178 25.249,-18.425 50.971,0c11.849,8.856 41.689,20.248 69.947,0c0.248,-0.178 25.257,-18.425 50.979,0c6.979,5.219 20.216,11.322 35.671,11.322c10.764,0 22.597,-2.954 34.152,-11.221l-9.244,-12.26c-25.606,18.34 -50.095,0.814 -51.219,0" style="fill:#6DAF9F;"/><path d="M334.008,169.139c-28.142,-20.17 -57.99,-8.771 -69.699,-0c-25.606,18.34 -50.095,0.814 -51.227,-0c-28.134,-20.17 -57.982,-8.771 -69.699,-0c-25.606,18.34 -50.087,0.814 -51.219,-0c-28.142,-20.17 -57.982,-8.755 -69.831,0.093l9.492,12.066c0.248,-0.178 25.264,-18.425 50.971,0c11.849,8.856 41.689,20.248 69.955,0c0.248,-0.178 25.249,-18.425 50.971,0c11.849,8.856 41.689,20.248 69.947,0c0.248,-0.178 25.257,-18.425 50.979,0c6.979,5.219 20.216,11.322 35.671,11.322c10.764,-0 22.597,-2.955 34.152,-11.221l-9.244,-12.26c-25.606,18.34 -50.095,0.814 -51.219,-0" style="fill:#6DAF9F;"/><path d="M334.008,110.806c-28.142,-20.17 -57.99,-8.771 -69.699,-0c-25.606,18.339 -50.095,0.814 -51.227,-0c-28.134,-20.17 -57.982,-8.771 -69.699,-0c-25.606,18.339 -50.087,0.814 -51.219,-0c-28.142,-20.17 -57.982,-8.755 -69.831,0.093l9.492,12.066c0.248,-0.179 25.264,-18.425 50.971,-0c11.849,8.856 41.689,20.247 69.955,-0c0.248,-0.179 25.249,-18.425 50.971,-0c11.849,8.856 41.689,20.247 69.947,-0c0.248,-0.179 25.257,-18.425 50.979,-0c6.979,5.219 20.216,11.322 35.671,11.322c10.764,-0 22.597,-2.955 34.152,-11.221l-9.244,-12.26c-25.606,18.339 -50.095,0.814 -51.219,-0" style="fill:#6DAF9F;"/></g></g><g id="IconsMind--svg-24px" serif:id="IconsMind -svg 24px"></g></svg>