<?xml version="1.0" encoding="UTF-8" standalone="no"?><!DOCTYPE svg PUBLIC "-//W3C//DTD SVG 1.1//EN" "http://www.w3.org/Graphics/SVG/1.1/DTD/svg11.dtd"><svg width="100%" height="100%" viewBox="0 0 417 417" version="1.1" xmlns="http://www.w3.org/2000/svg" xmlns:xlink="http://www.w3.org/1999/xlink" xml:space="preserve" xmlns:serif="http://www.serif.com/" style="fill-rule:evenodd;clip-rule:evenodd;stroke-linejoin:round;stroke-miterlimit:2;"><g id="_---ICON54--svg-24px-" serif:id="---ICON54 (svg 24px)"><g><g id="forest"><path id="XMLID_567_" d="M151.643,275.172l-129.721,0c-2.724,0 -5.279,-1.303 -6.852,-3.519c-1.608,-2.2 -2.031,-5.042 -1.168,-7.631l84.597,-253.79c2.318,-6.903 13.755,-6.903 16.056,0l64.852,194.572c0.576,1.743 0.576,3.621 0,5.347l-19.728,59.218c-1.167,3.468 -4.399,5.803 -8.036,5.803Zm-117.996,-16.919l111.888,-0l16.902,-50.758l-55.918,-167.823l-72.872,218.581Z" style="fill:#6DAF9F;fill-rule:nonzero;"/><path id="XMLID_564_" d="M394.148,275.172l-129.721,0c-3.638,0 -6.869,-2.335 -8.037,-5.786l-19.728,-59.218c-0.575,-1.743 -0.575,-3.621 0,-5.347l64.852,-194.572c2.318,-6.903 13.756,-6.903 16.057,-0l84.596,253.79c0.863,2.572 0.423,5.414 -1.167,7.631c-1.574,2.199 -4.128,3.502 -6.852,3.502Zm-123.63,-16.919l111.888,-0l-72.855,-218.581l-55.936,167.823l16.903,50.758Z" style="fill:#6DAF9F;fill-rule:nonzero;"/><path id="XMLID_563_" d="M208.035,410.527c-4.67,-0 -8.46,-3.79 -8.46,-8.46l0,-84.597c0,-4.669 3.79,-8.459 8.46,-8.459c4.67,-0 8.459,3.79 8.459,8.459l0,84.597c0,4.687 -3.789,8.46 -8.459,8.46Z" style="fill:#6DAF9F;fill-rule:nonzero;"/><path id="XMLID_562_" d="M309.551,325.93c-4.67,0 -8.46,-3.79 -8.46,-8.46l0,-84.596c0,-4.67 3.79,-8.46 8.46,-8.46c4.67,0 8.459,3.79 8.459,8.46l0,84.596c0,4.687 -3.789,8.46 -8.459,8.46Z" style="fill:#6DAF9F;fill-rule:nonzero;"/><path id="XMLID_561_" d="M106.519,325.93c-4.67,0 -8.46,-3.79 -8.46,-8.46l0,-84.596c0,-4.67 3.79,-8.46 8.46,-8.46c4.669,0 8.459,3.79 8.459,8.46l0,84.596c0,4.687 -3.79,8.46 -8.459,8.46Z" style="fill:#6DAF9F;fill-rule:nonzero;"/><path id="XMLID_558_" d="M292.631,359.769l-169.193,-0c-2.724,-0 -5.279,-1.303 -6.852,-3.519c-1.608,-2.2 -2.031,-5.042 -1.168,-7.631l84.597,-253.79c2.318,-6.903 13.755,-6.903 16.056,-0l84.597,253.79c0.863,2.572 0.423,5.414 -1.167,7.631c-1.591,2.216 -4.146,3.519 -6.87,3.519Zm-157.468,-16.92l145.726,0l-72.854,-218.581l-72.872,218.581Z" style="fill:#6DAF9F;fill-rule:nonzero;"/></g></g></g><g id="_---RETINAICONS--illustrator-" serif:id="---RETINAICONS (illustrator)"></g><g id="IconsMind--svg-24px" serif:id="IconsMind -svg 24px"></g><g id="_----DEPOSITPHOTOS" serif:id="--- DEPOSITPHOTOS"></g></svg>