<?xml version="1.0" encoding="UTF-8" standalone="no"?><!DOCTYPE svg PUBLIC "-//W3C//DTD SVG 1.1//EN" "http://www.w3.org/Graphics/SVG/1.1/DTD/svg11.dtd"><svg width="100%" height="100%" viewBox="0 0 417 417" version="1.1" xmlns="http://www.w3.org/2000/svg" xmlns:xlink="http://www.w3.org/1999/xlink" xml:space="preserve" xmlns:serif="http://www.serif.com/" style="fill-rule:evenodd;clip-rule:evenodd;stroke-linejoin:round;stroke-miterlimit:2;"><g id="_---ICON54--svg-24px-" serif:id="---ICON54 (svg 24px)"></g><g id="_---RETINAICONS--illustrator-" serif:id="---RETINAICONS (illustrator)"></g><g id="IconsMind--svg-24px" serif:id="IconsMind -svg 24px"></g><g id="_----DEPOSITPHOTOS" serif:id="--- DEPOSITPHOTOS"></g><g><path d="M155.646,341.834l28.07,-0c1.319,-37.039 -22.005,-141.064 -35.272,-193.714c-0.733,-2.904 0.467,-5.954 2.987,-7.573c2.519,-1.619 5.806,-1.458 8.137,0.419l57.774,46.223c-6.253,-38.665 -45.086,-69.848 -45.532,-70.197c-2.268,-1.8 -3.19,-4.808 -2.317,-7.572c3.461,-10.971 17.957,-17.232 43.138,-18.669c-9.199,-4.488 -21.335,-6.749 -36.292,-6.749c-24.28,-0 -46.935,6.26 -47.165,6.323c-3.036,0.858 -6.344,-0.475 -7.942,-3.259c-5.821,-10.183 0.418,-25.844 6.714,-37.234c-18.614,6.016 -29.041,29.326 -29.152,29.592c-1.082,2.456 -3.476,4.082 -6.149,4.173c-2.708,0.084 -5.186,-1.354 -6.428,-3.727c-11.823,-22.522 -25.467,-24.999 -31.434,-24.734c-1.863,6.63 7.091,21.775 14.97,30.876c1.536,1.773 2.073,4.187 1.452,6.442c-0.621,2.247 -2.338,4.041 -4.564,4.766c-26.919,8.78 -39.726,27.184 -45.777,43.767c21.733,-16.464 54.403,-22.061 56.441,-22.396c3.287,-0.531 6.588,1.368 7.712,4.564c1.13,3.19 -0.189,6.721 -3.127,8.396c-31.685,17.992 -32.823,58.604 -29.599,85.272c9.276,-20.861 27.847,-50.697 64.006,-76.115c1.885,-1.326 4.293,-1.633 6.435,-0.838c2.157,0.796 3.776,2.596 4.341,4.823c1.34,5.234 31.616,124.976 28.573,197.141m34.456,13.958l-41.868,-0c-1.954,-0 -3.81,-0.817 -5.13,-2.247c-1.319,-1.431 -1.989,-3.35 -1.835,-5.291c4.62,-57.459 -17.643,-157.848 -25.251,-189.952c-49.559,39.028 -58.527,86.528 -58.618,87.031c-0.565,3.175 -3.238,5.562 -6.463,5.75c-3.343,0.203 -6.155,-1.849 -7.097,-4.934c-0.957,-3.168 -19.507,-66.135 8.528,-106.251c-17.943,6.854 -36.361,18.188 -36.738,34.596c-0.091,3.734 -3.099,6.819 -6.826,6.819l-0.153,-0c-3.664,-0 -6.714,-2.834 -6.973,-6.505c-0.034,-0.663 -3.587,-63.071 51.472,-87.365c-8.061,-11.272 -18.963,-30.967 -7.824,-43.397c0.859,-0.956 1.975,-1.661 3.211,-2.031c1.493,-0.44 23.882,-6.665 43.606,20.847c8.291,-12.577 24.999,-31.148 49.963,-28.056c2.429,0.3 4.53,1.856 5.528,4.096c0.991,2.241 0.733,4.844 -0.677,6.847c-6.693,9.506 -12.814,21.873 -13.986,29.292c9.205,-2.031 25.704,-4.997 43.368,-4.997c28.308,-0 48.631,7.509 60.447,22.326c1.417,1.277 2.31,3.134 2.31,5.192c0,3.874 -3.427,6.98 -7.049,6.98c-0.181,-0 -0.286,-0 -0.426,-0.007c-0.083,-0.007 -2.84,-0.147 -7.056,-0.147c-21.384,0 -33.535,3.113 -38.762,6.232c13.833,12.514 49.217,48.987 46.16,92.126c-0.181,2.582 -1.786,4.857 -4.159,5.897c-2.38,1.04 -5.137,0.677 -7.161,-0.942l-53.788,-43.027c10.789,45.107 35.154,152.691 30.15,185.2c-0.524,3.405 -3.455,5.918 -6.903,5.918" style="fill:#6DAF9F;fill-rule:nonzero;"/><path d="M277.127,356.982c5.165,1.061 10.315,2.248 15.396,3.546c6.854,-42.05 16.282,-79.465 16.38,-79.856c0.566,-2.226 2.185,-4.034 4.341,-4.83c2.157,-0.802 4.565,-0.495 6.442,0.831c27.484,19.318 42.664,41.763 50.871,58.667c1.899,-21.328 -0.467,-50.613 -24.071,-64.027c-2.931,-1.668 -4.257,-5.206 -3.127,-8.389c1.124,-3.196 4.418,-5.095 7.712,-4.564c1.578,0.258 25.335,4.334 43.201,16.094c-5.38,-12.165 -15.633,-24.79 -35.077,-31.128c-2.219,-0.725 -3.929,-2.512 -4.557,-4.766c-0.621,-2.248 -0.084,-4.662 1.444,-6.435c6.491,-7.531 12.451,-18.306 12.158,-23.185c-5.192,0.126 -14.817,2.945 -23.541,19.57c-1.249,2.38 -3.713,3.831 -6.427,3.734c-2.68,-0.098 -5.074,-1.717 -6.149,-4.174c-0.084,-0.188 -7.3,-16.136 -19.974,-22.257c4.634,9.206 8.388,20.722 3.866,28.629c-1.584,2.785 -4.885,4.125 -7.935,3.259c-0.189,-0.056 -18.579,-5.129 -38.26,-5.129c-7.454,-0 -16.276,0.753 -24.148,3.426c17.832,1.794 28.224,7.063 30.959,15.724c0.873,2.757 -0.048,5.772 -2.317,7.573c-0.342,0.272 -29.529,23.792 -36.145,53.3l44.583,-35.664c2.352,-1.877 5.639,-2.038 8.145,-0.412c2.519,1.627 3.72,4.683 2.973,7.587c-0.091,0.37 -8.919,35.042 -16.743,72.876m21.077,19.291c-0.642,-0 -1.277,-0.091 -1.905,-0.265c-9.359,-2.652 -19.004,-4.886 -28.664,-6.645c-1.849,-0.335 -3.475,-1.395 -4.529,-2.945c-1.054,-1.556 -1.438,-3.461 -1.068,-5.297c4.585,-22.801 9.736,-45.134 13.407,-60.468l-41.086,32.865c-2.024,1.627 -4.781,1.982 -7.161,0.943c-2.373,-1.033 -3.985,-3.309 -4.16,-5.898c-2.449,-34.505 24.602,-63.789 36.836,-75.18c-4.543,-2.01 -13.825,-4.124 -29.514,-4.124c-3.399,-0 -5.633,0.111 -5.716,0.111c-2.715,0.098 -5.256,-1.298 -6.526,-3.699c-1.27,-2.4 -1.04,-5.311 0.6,-7.481c9.827,-12.988 27.017,-19.577 51.102,-19.577c13.407,0 26.004,2.073 33.849,3.713c-1.473,-5.618 -5.702,-14.3 -10.839,-21.593c-1.41,-2.01 -1.668,-4.607 -0.677,-6.847c0.998,-2.247 3.099,-3.804 5.528,-4.104c20.037,-2.47 33.821,11.586 41.079,22.034c10.964,-14.406 22.983,-16.841 29.85,-16.841c3.35,-0 5.555,0.579 6.156,0.754c1.242,0.369 2.352,1.074 3.217,2.037c9.268,10.344 1.214,26.151 -5.444,35.825c44.409,20.658 41.512,71.564 41.478,72.108c-0.259,3.72 -3.05,6.596 -7.119,6.505c-3.727,-0.084 -6.735,-3.085 -6.826,-6.812c-0.279,-12.081 -12.89,-20.365 -25.537,-25.641c20.045,33.36 5.695,82.082 4.928,84.615c-0.943,3.092 -3.958,5.116 -7.105,4.942c-3.225,-0.203 -5.898,-2.59 -6.449,-5.779c-0.07,-0.377 -7.181,-37.813 -45.944,-69.171c-3.524,15.075 -10.099,44.807 -14.865,75.99c-0.301,1.975 -1.438,3.733 -3.12,4.815c-1.145,0.726 -2.457,1.11 -3.776,1.11" style="fill:#6DAF9F;fill-rule:nonzero;"/></g></svg>