<?xml version="1.0" encoding="UTF-8" standalone="no"?><!DOCTYPE svg PUBLIC "-//W3C//DTD SVG 1.1//EN" "http://www.w3.org/Graphics/SVG/1.1/DTD/svg11.dtd"><svg width="100%" height="100%" viewBox="0 0 417 417" version="1.1" xmlns="http://www.w3.org/2000/svg" xmlns:xlink="http://www.w3.org/1999/xlink" xml:space="preserve" xmlns:serif="http://www.serif.com/" style="fill-rule:evenodd;clip-rule:evenodd;stroke-linejoin:round;stroke-miterlimit:2;"><g id="_---ICON54--svg-24px-" serif:id="---ICON54 (svg 24px)"></g><g id="_---RETINAICONS--illustrator-" serif:id="---RETINAICONS (illustrator)"><path d="M242.003,381.946c96.55,-22.032 157.01,-119.232 134.771,-216.691c-13.033,-57.115 -52.772,-104.202 -105.779,-126.823c4.331,10.457 7.742,21.106 10.196,31.86c24.737,108.403 -42.533,216.552 -149.97,241.069c-24.068,5.492 -48.429,6.422 -72.672,2.811c42.383,56.661 113.735,83.683 183.454,67.774m-199.731,-88.304c28.337,7.245 56.988,7.645 85.182,1.211c98.391,-22.452 159.998,-121.511 137.337,-220.819c-3.612,-15.83 -9.528,-31.482 -17.568,-46.511l-9.619,-17.95l19.41,5.834c68.1,20.497 120.282,76.485 136.168,146.104c24.315,106.554 -41.816,212.846 -147.413,236.942c-83.369,19.024 -168.88,-18.061 -212.771,-92.292l-10.371,-17.553l19.645,5.034Zm51.033,-75.833c-2.631,6.505 -10.025,9.643 -16.529,7.02c-6.505,-2.632 -9.648,-10.051 -7.011,-16.532c2.63,-6.513 10.034,-9.644 16.531,-7.011c6.503,2.624 9.643,10.026 7.009,16.523m-30.198,-117.229c-6.505,-2.632 -9.644,-10.034 -7.021,-16.538c2.642,-6.498 10.036,-9.636 16.541,-7.004c6.494,2.616 9.645,10.034 7.011,16.531c-2.631,6.505 -10.035,9.636 -16.531,7.011m109.87,44.439c-6.504,-2.623 -9.647,-10.042 -7.01,-16.523c2.632,-6.505 10.035,-9.644 16.538,-7.021c6.497,2.633 9.634,10.028 7.001,16.525c-2.621,6.511 -10.022,9.659 -16.529,7.019" style="fill:#6DAF9F;fill-rule:nonzero;"/></g><g id="IconsMind--svg-24px" serif:id="IconsMind -svg 24px"></g><g id="_----DEPOSITPHOTOS" serif:id="--- DEPOSITPHOTOS"></g></svg>