<?xml version="1.0" encoding="UTF-8" standalone="no"?><!DOCTYPE svg PUBLIC "-//W3C//DTD SVG 1.1//EN" "http://www.w3.org/Graphics/SVG/1.1/DTD/svg11.dtd"><svg width="100%" height="100%" viewBox="0 0 417 417" version="1.1" xmlns="http://www.w3.org/2000/svg" xmlns:xlink="http://www.w3.org/1999/xlink" xml:space="preserve" xmlns:serif="http://www.serif.com/" style="fill-rule:evenodd;clip-rule:evenodd;stroke-linejoin:round;stroke-miterlimit:2;"><g id="_---ICON54--svg-24px-" serif:id="---ICON54 (svg 24px)"></g><g id="_---RETINAICONS--illustrator-" serif:id="---RETINAICONS (illustrator)"></g><g id="IconsMind--svg-24px" serif:id="IconsMind -svg 24px"></g><g id="_----DEPOSITPHOTOS" serif:id="--- DEPOSITPHOTOS"><g><path d="M34.958,307.625c3.72,25.941 26.087,45.943 53.039,45.943l187.203,0c69.436,0 80.267,-42.3 80.696,-88.84c-111.2,36.627 -219.705,42.613 -320.938,42.897Zm240.242,61.252l-187.203,0c-37.99,0 -68.892,-30.902 -68.892,-68.892l-0,-7.654l7.655,-0c105.298,-0 218.671,-5.519 334.303,-45.508l10.158,-3.513l-0,18.402c-0,29.31 -0,107.165 -96.021,107.165Z" style="fill:#6DAF9F;fill-rule:nonzero;"/><path d="M179.853,294.206l-15.309,-0c0,-151.441 -7.578,-225.331 -28.973,-282.374l14.337,-5.381c22.115,58.964 29.945,134.263 29.945,287.755Z" style="fill:#6DAF9F;fill-rule:nonzero;"/><path d="M245.967,148.797c-14.804,-22.183 -32.333,-41.955 -53.598,-60.441l10.035,-11.559c22.314,19.39 40.731,40.165 56.3,63.511l-12.737,8.489Z" style="fill:#6DAF9F;fill-rule:nonzero;"/><path d="M260.343,171.517c-1.746,-3.46 -4.287,-8.237 -6.178,-11.62l13.35,-7.487c1.998,3.56 4.677,8.589 6.506,12.225l-13.678,6.882Z" style="fill:#6DAF9F;fill-rule:nonzero;"/><path d="M143.907,16.762c-2.45,-0 -5.841,0.612 -7.127,5.924c-19.381,80.367 -53.024,134.884 -80.167,173.394l-4.386,6.147c-6.859,9.546 -10.158,14.322 -10.158,18.632c-0,7.379 6.239,11.528 12.087,12.944c22.612,5.488 77.343,13.105 117.943,12.599c33.436,-0.436 68.556,-2.862 98.776,-17.575c22.635,-11.007 31.454,-23.676 31.454,-45.17c-0,-7.134 -1.554,-14.115 -4.624,-20.752c-28.246,-61.077 -80.849,-112.394 -148.111,-144.505c-1.829,-0.873 -4.485,-1.638 -5.687,-1.638Zm24.082,244.98c-41.527,0 -94.268,-7.44 -117.446,-13.058c-14.445,-3.506 -23.783,-14.43 -23.783,-27.825c-0,-9.439 5.189,-16.657 13.036,-27.565l4.309,-6.039c27.993,-39.713 59.125,-90.755 77.802,-168.151c2.618,-10.885 11.054,-17.652 22,-17.652c5.45,0 11.191,2.61 12.278,3.131c70.485,33.65 125.675,87.593 155.413,151.892c4.004,8.673 6.04,17.813 6.04,27.182c-0,27.281 -12.355,45.461 -40.065,58.941c-33.014,16.067 -71.739,18.677 -105.275,19.114c-1.416,0.015 -2.855,0.03 -4.309,0.03Z" style="fill:#6DAF9F;fill-rule:nonzero;"/><rect x="11.45" y="353.568" width="390.389" height="15.309" style="fill:#6DAF9F;fill-rule:nonzero;"/><rect x="256.4" y="384.187" width="15.309" height="15.309" style="fill:#6DAF9F;fill-rule:nonzero;"/><rect x="225.782" y="384.187" width="15.309" height="15.309" style="fill:#6DAF9F;fill-rule:nonzero;"/><rect x="118.616" y="384.187" width="91.856" height="15.309" style="fill:#6DAF9F;fill-rule:nonzero;"/></g></g></svg>