<?xml version="1.0" encoding="UTF-8" standalone="no"?><!DOCTYPE svg PUBLIC "-//W3C//DTD SVG 1.1//EN" "http://www.w3.org/Graphics/SVG/1.1/DTD/svg11.dtd"><svg width="100%" height="100%" viewBox="0 0 417 417" version="1.1" xmlns="http://www.w3.org/2000/svg" xmlns:xlink="http://www.w3.org/1999/xlink" xml:space="preserve" xmlns:serif="http://www.serif.com/" style="fill-rule:evenodd;clip-rule:evenodd;stroke-linejoin:round;stroke-miterlimit:2;"><g id="_---ICON54--svg-24px-" serif:id="---ICON54 (svg 24px)"><g><path d="M407.288,337.759l-20.455,-22.615c-7.461,-8.25 -17.646,-11.742 -29.143,-11.185c-5.147,0.537 -9.899,2.24 -14.128,4.745c-0.052,-0.043 -0.074,-0.106 -0.126,-0.149l-93.855,-78.082c-0.017,-0.014 -0.001,-0.016 -0.018,-0.03l-59.717,-49.681c-0.017,-0.014 -0.033,-0.013 -0.033,-0.013l-106.843,-88.888c-0.068,-0.041 -0.149,-0.05 -0.202,-0.109c1.709,-4.616 2.519,-9.598 2.113,-14.726c-0.872,-11.083 -6.815,-20.787 -16.3,-26.621l-25.959,-15.999c-9.539,-5.894 -21.851,-5.133 -30.622,1.894c-10.205,8.17 -12.944,22.375 -6.556,33.787l14.934,26.586c5.083,9.077 13.883,15.311 24.119,17.099c3.065,0.537 6.139,0.655 9.161,0.378c7.078,-0.649 13.827,-3.482 19.343,-8.222l-5.222,-6.049l5.251,6.014c0.314,-0.253 0.507,-0.591 0.803,-0.859l55.861,46.473c-2.618,20.065 -3.062,40.924 -1.117,62.126c11.916,129.899 96.687,179.767 100.292,181.826c1.455,0.829 3.105,1.159 4.696,1.013c1.606,-0.147 3.169,-0.772 4.449,-1.852c1.769,-1.525 41.237,-35.845 58.622,-104.227l35.475,29.514c-0.126,0.204 -0.319,0.366 -0.445,0.57l-0.029,0.035c-0.069,0.119 -0.153,0.255 -0.222,0.373c-5.255,8.983 -6.179,19.718 -2.543,29.457c3.62,9.74 11.351,17.259 21.186,20.607l28.875,9.846c3.693,1.265 7.436,1.676 11.078,1.342c8.652,-0.794 16.612,-5.823 20.985,-13.923c5.3,-9.885 3.824,-22.132 -3.708,-30.455Zm-344.685,-243.949c-4.239,3.629 -9.841,5.153 -15.316,4.212c-5.509,-0.954 -10.211,-4.308 -12.951,-9.173l-14.935,-26.603c-2.568,-4.56 -1.452,-10.228 2.611,-13.503c1.674,-1.325 3.656,-2.1 5.692,-2.287c2.243,-0.206 4.551,0.304 6.587,1.513l25.959,16c5.084,3.142 8.273,8.351 8.755,14.305c0.454,5.829 -1.764,11.373 -6.402,15.536Zm129.291,109.444l43.081,35.841c-3.727,8.506 -8.975,13.719 -14.542,14.229c-11.277,1.035 -25.655,-17.406 -28.235,-45.527c-0.138,-1.511 -0.245,-3.025 -0.304,-4.543Zm40.006,175.07c-17.755,-12.582 -77.908,-62.479 -87.418,-166.15c-1.51,-16.462 -1.556,-32.705 -0.149,-48.489l32.124,26.726c-0.588,6.181 -0.749,12.467 -0.164,18.845c3.273,35.676 23.3,62.019 45.599,59.974c10.466,-0.961 19.442,-8.023 25.672,-19.662l35.406,29.456c-12.124,54.924 -40.329,88.226 -51.07,99.3Zm165.011,-17.655c-2.482,4.59 -7.869,6.704 -12.803,5.024l-28.876,-9.846c-5.282,-1.809 -9.42,-5.824 -11.376,-11.066c-1.957,-5.242 -1.458,-10.997 1.355,-15.827l0.029,-0.034c3.008,-5.152 8.141,-8.462 14.084,-9.071l0.223,-0.021c5.869,-0.538 11.49,1.641 15.437,6.026l20.455,22.616c3.002,3.349 3.596,8.251 1.472,12.199Zm-253.28,-239.952c4.219,1.233 8.687,-1.118 9.969,-5.325c13.519,-44.61 37.014,-72.428 46.632,-82.453c17.856,12.813 77.978,63.242 87.414,166.102c1.161,12.661 1.41,25.341 0.75,38.778c-0.222,4.399 3.185,8.144 7.584,8.366c0.372,0.031 0.755,0.011 1.121,-0.022c3.897,-0.358 7.038,-3.533 7.23,-7.56c0.688,-14.178 0.434,-27.611 -0.796,-41.02c-11.789,-128.514 -96.613,-179.661 -100.206,-181.769c-2.966,-1.733 -6.672,-1.393 -9.273,0.85c-1.501,1.293 -37.105,32.628 -55.75,94.084c-1.281,4.223 1.117,8.687 5.325,9.969Zm48.867,30.033c-3.149,3.08 -3.215,8.138 -0.135,11.288c3.065,3.167 8.122,3.217 11.288,0.136c14.263,-13.948 31.176,7.469 35.478,36.185c0.643,4.208 4.442,7.163 8.625,6.779c0.16,-0.014 0.317,-0.045 0.446,-0.04c4.368,-0.642 7.378,-4.719 6.722,-9.07c-4.972,-33.226 -23.785,-55.944 -44.717,-54.024c-6.409,0.588 -12.363,3.524 -17.707,8.746Z" style="fill:#6DAF9F;fill-rule:nonzero;"/></g></g><g id="_---RETINAICONS--illustrator-" serif:id="---RETINAICONS (illustrator)"></g><g id="IconsMind--svg-24px" serif:id="IconsMind -svg 24px"></g><g id="_----DEPOSITPHOTOS" serif:id="--- DEPOSITPHOTOS"></g></svg>